<?xml version="1.0" encoding="UTF-8"?>
<svg xmlns="http://www.w3.org/2000/svg" version="1.1" viewBox="0 0 38.01 29.44">
  <defs>
    <style>
      .cls-1, .cls-2, .cls-3, .cls-4, .cls-5, .cls-6 {
        fill: none;
        stroke-miterlimit: 10;
      }

      .cls-1, .cls-2, .cls-3, .cls-5 {
        stroke-linecap: round;
      }

      .cls-1, .cls-6 {
        stroke: #4c4b4c;
        stroke-width: 1.18px;
      }

      .cls-2 {
        stroke-width: 10.14px;
      }

      .cls-2, .cls-4, .cls-5 {
        stroke: #dcdbdb;
      }

      .cls-3 {
        stroke: #3d3d3d;
        stroke-width: 10.95px;
      }

      .cls-4 {
        stroke-linecap: square;
        stroke-width: .68px;
      }

      .cls-5 {
        stroke-width: .68px;
      }

      .cls-7 {
        fill: #fff;
      }

      .cls-8 {
        fill: #afafaf;
      }
    </style>
  </defs>
  <!-- Generator: Adobe Illustrator 28.6.0, SVG Export Plug-In . SVG Version: 1.2.0 Build 709)  -->
  <g>
    <g id="Layer_1">
      <g>
        <g>
          <g>
            <path class="cls-1" d="M19.77,10.06c.4.33.79.67,1.18,1.01"/>
            <path class="cls-5" d="M19.77,10.06c.4.33.79.67,1.18,1.01"/>
          </g>
          <g>
            <path class="cls-1" d="M21.73,11.74c2.3,2,4.7,3.89,7.2,5.67,1.36.97,2.84,1.94,4.53,2.11s3.63-.74,3.96-2.35"/>
            <path class="cls-5" d="M21.73,11.74c2.3,2,4.7,3.89,7.2,5.67,1.36.97,2.84,1.94,4.53,2.11s3.63-.74,3.96-2.35"/>
          </g>
          <g>
            <path class="cls-1" d="M15.45,23.85c1.18,1.68-.23,4.18-2.25,4.78s-4.2-.2-5.94-1.33c-.97-.63-1.88-1.39-2.39-2.4-.75-1.49-.5-3.25-.24-4.89.15-.9,2.48-3.36,3.27-3.71,2.98-1.31,4.75-4.79,4-7.85-.16-.65-.42-1.28-.54-1.94-.42-2.2.88-4.61,3.01-5.52s4.86-.21,6.2,1.62"/>
            <path class="cls-5" d="M15.45,23.85c1.18,1.68-.23,4.18-2.25,4.78s-4.2-.2-5.94-1.33c-.97-.63-1.88-1.39-2.39-2.4-.75-1.49-.5-3.25-.24-4.89.15-.9,2.48-3.36,3.27-3.71,2.98-1.31,4.75-4.79,4-7.85-.16-.65-.42-1.28-.54-1.94-.42-2.2.88-4.61,3.01-5.52s4.86-.21,6.2,1.62"/>
          </g>
          <g>
            <line class="cls-3" x1="15" y1="21.67" x2="28.64" y2="12.41"/>
            <line class="cls-2" x1="15" y1="21.67" x2="28.64" y2="12.41"/>
          </g>
          <g>
            <path class="cls-1" d="M12.39,22.24c-.47-.32-1.01-.41-1.56-.32"/>
            <path class="cls-5" d="M12.39,22.24c-.47-.32-1.01-.41-1.56-.32"/>
          </g>
          <g>
            <path class="cls-6" d="M10.84,21.91c-.91.14-1.85.73-2.51,1.41-1.05,1.09-1.95,2.47-3.43,2.9-2.04.59-4.26-1.25-4.31-3.3s1.7-3.89,3.75-4.42c1.34-.35,2.84-.26,4.02-.97,2.97-1.8,1.5-6.93,4.33-8.93,1.27-.9,3.06-.82,4.5-.21.96.41,1.79,1.01,2.59,1.67"/>
            <path class="cls-4" d="M10.84,21.91c-.91.14-1.85.73-2.51,1.41-1.05,1.09-1.95,2.47-3.43,2.9-2.04.59-4.26-1.25-4.31-3.3s1.7-3.89,3.75-4.42c1.34-.35,2.84-.26,4.02-.97,2.97-1.8,1.5-6.93,4.33-8.93,1.27-.9,3.06-.82,4.5-.21.96.41,1.79,1.01,2.59,1.67"/>
          </g>
        </g>
        <path class="cls-7" d="M13.66,17.57c2.81-2.07,5.64-4.11,8.51-6.11,1.44-1,2.83-2.04,4.38-2.91.76-.47,1.77-.75,2.69-.54.92.18,1.71.73,2.25,1.43l-.05.05c-1.3-1.12-3.16-1.42-4.55-.35,0,0-4.41,2.78-4.41,2.78-.02-.05-8.83,5.88-8.81,5.66h0Z"/>
        <path class="cls-8" d="M10.55,24.15s3.42,3.95,18.26-5.85c4.07-2.69-7.44,5.48-11.2,7.68-1.8,1.05-3.79.78-5.62-.08-1.05-.5-1.44-1.74-1.44-1.74Z"/>
      </g>
    </g>
  </g>
</svg>