<?xml version="1.0" encoding="utf-8"?>
<!-- Generator: Adobe Illustrator 26.0.2, SVG Export Plug-In . SVG Version: 6.00 Build 0)  -->
<svg version="1.1" id="Layer_1" xmlns="http://www.w3.org/2000/svg" xmlns:xlink="http://www.w3.org/1999/xlink" x="0px" y="0px"
	 viewBox="0 0 10.03 8.57" style="enable-background:new 0 0 10.03 8.57;" xml:space="preserve">
<style type="text/css">
	.st0{fill:none;stroke:#4C4B4C;stroke-width:0.3375;stroke-linecap:round;stroke-miterlimit:10;}
	.st1{fill:none;stroke:#DCDBDB;stroke-width:0.1927;stroke-linecap:round;stroke-miterlimit:10;}
	.st2{fill:none;stroke:#3D3D3D;stroke-width:3.0951;stroke-linecap:round;stroke-miterlimit:10;}
	.st3{fill:none;stroke:#DCDBDB;stroke-width:2.8901;stroke-linecap:round;stroke-miterlimit:10;}
	.st4{fill:none;stroke:#4C4B4C;stroke-width:0.3375;stroke-miterlimit:10;}
	.st5{fill:none;stroke:#DCDBDB;stroke-width:0.1927;stroke-linecap:square;stroke-miterlimit:10;}
	.st6{fill:#FFFFFF;}
	.st7{fill:#AFAFAF;}
</style>
<g>
	<g>
		<g>
			<path class="st0" d="M4.46,2.56c0.14,0.06,0.27,0.12,0.4,0.18"/>
			<path class="st1" d="M4.46,2.56c0.14,0.06,0.27,0.12,0.4,0.18"/>
		</g>
		<g>
			<path class="st0" d="M5.13,2.86c0.79,0.37,1.59,0.7,2.42,0.99C8,4.01,8.48,4.16,8.95,4.08c0.48-0.09,0.94-0.49,0.9-0.96"/>
			<path class="st1" d="M5.13,2.86c0.79,0.37,1.59,0.7,2.42,0.99C8,4.01,8.48,4.16,8.95,4.08c0.48-0.09,0.94-0.49,0.9-0.96"/>
		</g>
		<g>
			<path class="st0" d="M4.36,6.68c0.46,0.37,0.26,1.16-0.24,1.49c-0.5,0.32-1.17,0.28-1.73,0.1C2.07,8.17,1.76,8.03,1.54,7.8
				C1.22,7.45,1.15,6.95,1.1,6.48C1.06,6.22,1.51,5.36,1.7,5.2c0.71-0.59,0.93-1.68,0.48-2.47c-0.09-0.17-0.21-0.32-0.3-0.49
				C1.59,1.68,1.76,0.91,2.27,0.5S3.59,0.06,4.1,0.45"/>
			<path class="st1" d="M4.36,6.68c0.46,0.37,0.26,1.16-0.24,1.49c-0.5,0.32-1.17,0.28-1.73,0.1C2.07,8.17,1.76,8.03,1.54,7.8
				C1.22,7.45,1.15,6.95,1.1,6.48C1.06,6.22,1.51,5.36,1.7,5.2c0.71-0.59,0.93-1.68,0.48-2.47c-0.09-0.17-0.21-0.32-0.3-0.49
				C1.59,1.68,1.76,0.91,2.27,0.5S3.59,0.06,4.1,0.45"/>
		</g>
		<g>
			<line class="st2" x1="4.07" y1="6.11" x2="7.08" y2="2.51"/>
			<line class="st3" x1="4.07" y1="6.11" x2="7.08" y2="2.51"/>
		</g>
		<g>
			<path class="st0" d="M3.4,6.47C3.24,6.42,3.09,6.44,2.94,6.51"/>
			<path class="st1" d="M3.4,6.47C3.24,6.42,3.09,6.44,2.94,6.51"/>
		</g>
		<g>
			<path class="st4" d="M2.94,6.51C2.7,6.62,2.49,6.85,2.37,7.09c-0.2,0.38-0.34,0.83-0.71,1.06C1.14,8.48,0.39,8.15,0.22,7.59
				s0.16-1.2,0.68-1.51c0.34-0.2,0.76-0.29,1.02-0.58C2.59,4.77,1.79,3.48,2.4,2.71C2.68,2.37,3.18,2.25,3.62,2.3
				c0.29,0.04,0.57,0.14,0.84,0.25"/>
			<path class="st5" d="M2.94,6.51C2.7,6.62,2.49,6.85,2.37,7.09c-0.2,0.38-0.34,0.83-0.71,1.06C1.14,8.48,0.39,8.15,0.22,7.59
				s0.16-1.2,0.68-1.51c0.34-0.2,0.76-0.29,1.02-0.58C2.59,4.77,1.79,3.48,2.4,2.71C2.68,2.37,3.18,2.25,3.62,2.3
				c0.29,0.04,0.57,0.14,0.84,0.25"/>
		</g>
	</g>
	<g>
		<path class="st6" d="M3.38,5.1C4.3,3.92,5.19,2.72,6.2,1.61C6.53,1.2,7.3,1.12,7.61,1.48c-0.45-0.21-1-0.14-1.28,0.26L5.35,2.85
			C5.34,2.84,3.39,5.16,3.38,5.1L3.38,5.1z"/>
	</g>
	<path class="st7" d="M3.04,7.14c0,0,1.25,0.82,4.54-3.04c0.91-1.06-1.61,2.09-2.47,2.98C4.71,7.52,4.14,7.6,3.57,7.51
		C3.24,7.45,3.04,7.14,3.04,7.14z"/>
</g>
</svg>
