<?xml version="1.0" encoding="utf-8"?>
<!-- Generator: Adobe Illustrator 26.0.2, SVG Export Plug-In . SVG Version: 6.00 Build 0)  -->
<svg version="1.1" id="Layer_1" xmlns="http://www.w3.org/2000/svg" xmlns:xlink="http://www.w3.org/1999/xlink" x="0px" y="0px"
	 viewBox="0 0 70.09 46.87" style="enable-background:new 0 0 70.09 46.87;" xml:space="preserve">
<style type="text/css">
	.st0{fill:#AFAFAF;stroke:#000000;stroke-width:0.1378;stroke-miterlimit:10;}
	.st1{fill:#F8DAB0;stroke:#000000;stroke-width:0.1378;stroke-miterlimit:10;}
	.st2{fill:#CEA979;stroke:#4C4B4C;stroke-width:0.1109;stroke-miterlimit:10;}
	.st3{fill:#F8DAB0;stroke:#4C4B4C;stroke-width:0.1109;stroke-miterlimit:10;}
	.st4{fill:#F7CD8E;}
	.st5{fill:#FFFFFF;}
	.st6{fill:none;stroke:#154577;stroke-width:0.5363;stroke-miterlimit:10;}
	.st7{fill:none;stroke:#8EC1E8;stroke-width:0.3575;stroke-miterlimit:10;}
	.st8{fill:#DCDBDB;stroke:#000000;stroke-width:0.1378;stroke-miterlimit:10;}
	.st9{fill:#BCBEC0;}
	.st10{fill:#DCDBDB;}
	.st11{fill:#F8DAB0;stroke:#000000;stroke-width:0.1848;stroke-miterlimit:10;}
	.st12{fill:#FFEFDB;}
	.st13{fill:#F7CD8E;stroke:#000000;stroke-width:0.1378;stroke-miterlimit:10;}
	.st14{fill:#DBB37D;}
	.st15{fill:#A897C5;stroke:#8066AD;stroke-width:0.1019;stroke-miterlimit:10;}
	.st16{fill:#C2B6D6;stroke:#4C4B4C;stroke-width:0.1019;stroke-miterlimit:10;}
	.st17{fill:#A897C5;}
	.st18{fill:#C2B6D6;stroke:#4C4B4C;stroke-width:0.1165;stroke-miterlimit:10;}
	.st19{fill:#A897C5;stroke:#4C4B4C;stroke-width:0.1165;stroke-miterlimit:10;}
	.st20{fill:#F1F2F2;}
	.st21{fill:none;}
	.st22{fill:#A897C5;stroke:#4C4B4C;stroke-width:0.0941;stroke-miterlimit:10;}
	.st23{fill:#C2B6D6;stroke:#4C4B4C;stroke-width:0.0941;stroke-miterlimit:10;}
	.st24{fill:#C2B6D6;stroke:#3D3D3D;stroke-width:0.1095;stroke-miterlimit:10;}
	.st25{fill:none;stroke:#EEEFEF;stroke-width:0.1378;stroke-miterlimit:10;}
	.st26{fill:url(#SVGID_1_);}
</style>
<g>
	<g>
		<g>
			<path class="st0" d="M69.15,39.68c0,0.67-3.62,1.21-8.09,1.21s-8.2-0.43-8.2-1.1s3.73-1.32,8.2-1.32S69.15,39.01,69.15,39.68z"/>
		</g>
		<g>
			<line class="st1" x1="61.26" y1="17.82" x2="52.86" y2="39.79"/>
			<line class="st1" x1="61.38" y1="17.82" x2="69.15" y2="39.68"/>
			<line class="st1" x1="61.32" y1="17.83" x2="61.32" y2="38.8"/>
		</g>
		<g>
			<g>
				<path class="st2" d="M63.5,34.01c-0.01,0.37,0.16,0.73,0.12,1.09c-0.02,0.18-0.1,0.34-0.12,0.52c-0.05,0.41,0.2,0.84,0.58,0.98
					c0.21,0.08,0.46,0.08,0.66,0.2c0.31,0.18,0.43,0.57,0.7,0.81c0.33,0.3,0.87,0.29,1.24,0.05c0.37-0.24,0.59-0.68,0.65-1.12
					c0.09-0.66-0.15-1.32-0.54-1.86s-0.91-0.96-1.45-1.34c-0.4-0.28-0.65-0.51-1.13-0.31C63.83,33.21,63.52,33.57,63.5,34.01z"/>
				<g>
					<path class="st3" d="M65.04,32.65c0.36,0.07,0.59,0.45,0.95,0.55c0.24,0.07,0.5,0.01,0.75,0.04c0.4,0.06,0.71,0.37,0.99,0.66
						c0.24,0.25,0.5,0.54,0.48,0.89c-0.02,0.42-0.45,0.76-0.38,1.18c0.03,0.16,0.13,0.3,0.18,0.46c0.1,0.31-0.05,0.66-0.3,0.87
						c-0.25,0.21-0.58,0.29-0.91,0.3c-0.65,0.01-1.3-0.3-1.71-0.81c-0.07-0.08-0.13-0.18-0.14-0.29c-0.02-0.18,0.12-0.35,0.1-0.53
						c-0.02-0.17-0.17-0.29-0.33-0.35c-0.16-0.06-0.33-0.09-0.48-0.16c-0.3-0.15-0.47-0.48-0.5-0.81
						C63.69,33.96,64.09,32.45,65.04,32.65z"/>
					<path class="st4" d="M65.04,36.35c0,0-0.02,0.05-0.02,0.07c0,0.03,0.01,0.1,0.02,0.14c0.03,0.07,0.12,0.2,0.17,0.26
						c0.08,0.09,0.26,0.25,0.36,0.32c0.13,0.09,0.4,0.23,0.55,0.28c0.07,0.03,0.23,0.05,0.3,0.06c0.09,0.01,0.27,0.04,0.36,0.04
						c0.07,0,0.21-0.01,0.28-0.02c0.07-0.01,0.2-0.05,0.27-0.07c0.07-0.03,0.22-0.1,0.29-0.14c0.05-0.04,0.25-0.25,0.31-0.38
						c0.08-0.21,0.02-0.44,0.02-0.44C67.96,37.08,65.82,37.9,65.04,36.35z"/>
					<g>
						<path class="st5" d="M65.29,33.03c0.18,0.1,0.34,0.23,0.51,0.31c0.52,0.18,1.35-0.1,1.63,0.56c-0.26-0.35-0.66-0.37-1.06-0.36
							C65.94,33.58,65.55,33.35,65.29,33.03L65.29,33.03z"/>
					</g>
				</g>
			</g>
			<g>
				<path class="st2" d="M58.6,29.11c-0.12,0.35-0.06,0.74-0.21,1.08c-0.07,0.16-0.19,0.3-0.27,0.46c-0.17,0.37-0.06,0.86,0.27,1.11
					c0.18,0.14,0.41,0.22,0.57,0.38c0.25,0.26,0.24,0.67,0.43,0.98c0.23,0.38,0.74,0.53,1.17,0.42c0.43-0.12,0.77-0.47,0.95-0.87
					c0.28-0.6,0.24-1.31,0.03-1.94c-0.21-0.63-0.59-1.18-0.99-1.71c-0.3-0.38-0.47-0.68-0.99-0.63
					C59.14,28.45,58.74,28.7,58.6,29.11z"/>
				<g>
					<path class="st3" d="M60.47,28.27c0.32,0.18,0.44,0.6,0.74,0.81c0.21,0.14,0.48,0.15,0.7,0.26c0.36,0.17,0.57,0.56,0.75,0.92
						c0.16,0.31,0.31,0.67,0.19,0.99c-0.15,0.39-0.65,0.6-0.71,1.01c-0.02,0.16,0.04,0.33,0.04,0.5c0,0.32-0.24,0.62-0.54,0.74
						S61,33.6,60.69,33.51c-0.63-0.19-1.16-0.67-1.4-1.28c-0.04-0.1-0.07-0.21-0.05-0.32c0.04-0.18,0.22-0.3,0.25-0.47
						c0.03-0.17-0.08-0.33-0.21-0.44c-0.13-0.11-0.29-0.18-0.41-0.3c-0.24-0.23-0.31-0.6-0.24-0.93
						C58.79,29.12,59.61,27.8,60.47,28.27z"/>
					<path class="st4" d="M59.38,31.81c0,0-0.03,0.05-0.04,0.06c-0.01,0.03-0.03,0.1-0.02,0.14c0,0.08,0.05,0.23,0.08,0.3
						c0.05,0.11,0.17,0.32,0.24,0.41c0.1,0.12,0.32,0.34,0.44,0.43c0.06,0.05,0.2,0.11,0.27,0.15c0.08,0.04,0.25,0.12,0.34,0.14
						c0.07,0.02,0.21,0.05,0.28,0.06c0.07,0.01,0.21,0.01,0.28,0.01c0.08,0,0.24-0.03,0.31-0.05c0.06-0.02,0.32-0.16,0.4-0.28
						c0.14-0.17,0.14-0.41,0.14-0.41C61.95,33.36,59.66,33.51,59.38,31.81z"/>
					<g>
						<path class="st5" d="M60.59,28.71c0.14,0.15,0.25,0.32,0.39,0.45c0.45,0.33,1.32,0.3,1.39,1.02
							c-0.15-0.41-0.52-0.55-0.91-0.65C61.05,29.43,60.74,29.09,60.59,28.71L60.59,28.71z"/>
					</g>
				</g>
			</g>
			<g>
				<path class="st2" d="M56.68,30.7c-0.12,0.35-0.06,0.74-0.21,1.08c-0.07,0.16-0.19,0.3-0.27,0.46c-0.17,0.37-0.06,0.86,0.27,1.11
					c0.18,0.14,0.41,0.22,0.57,0.38c0.25,0.26,0.24,0.67,0.43,0.98c0.23,0.38,0.74,0.53,1.17,0.42c0.43-0.12,0.77-0.47,0.95-0.87
					c0.28-0.6,0.24-1.31,0.03-1.94c-0.21-0.63-0.59-1.18-0.99-1.71c-0.3-0.38-0.47-0.68-0.99-0.63
					C57.23,30.04,56.82,30.29,56.68,30.7z"/>
				<g>
					<path class="st3" d="M58.55,29.86c0.32,0.18,0.44,0.6,0.74,0.81c0.21,0.14,0.48,0.15,0.7,0.26c0.36,0.17,0.57,0.56,0.75,0.92
						c0.16,0.31,0.31,0.67,0.19,0.99c-0.15,0.39-0.65,0.6-0.71,1.01c-0.02,0.16,0.04,0.33,0.04,0.5c0,0.32-0.24,0.62-0.54,0.74
						c-0.3,0.13-0.64,0.11-0.95,0.01c-0.63-0.19-1.16-0.67-1.4-1.28c-0.04-0.1-0.07-0.21-0.05-0.32c0.04-0.18,0.22-0.3,0.25-0.47
						c0.03-0.17-0.08-0.33-0.21-0.44s-0.29-0.18-0.41-0.3c-0.24-0.23-0.31-0.6-0.24-0.93C56.88,30.71,57.7,29.39,58.55,29.86z"/>
					<path class="st4" d="M57.46,33.4c0,0-0.03,0.05-0.04,0.06c-0.01,0.03-0.03,0.1-0.02,0.14c0,0.08,0.05,0.23,0.08,0.3
						c0.05,0.11,0.17,0.32,0.24,0.41c0.1,0.12,0.32,0.34,0.44,0.43c0.06,0.05,0.2,0.11,0.27,0.15c0.08,0.04,0.25,0.12,0.34,0.14
						c0.07,0.02,0.21,0.05,0.28,0.06c0.07,0.01,0.21,0.01,0.28,0.01c0.08,0,0.24-0.03,0.31-0.05c0.06-0.02,0.32-0.16,0.4-0.28
						c0.14-0.17,0.14-0.41,0.14-0.41C60.03,34.95,57.75,35.1,57.46,33.4z"/>
					<g>
						<path class="st5" d="M58.68,30.3c0.14,0.15,0.25,0.32,0.39,0.45c0.45,0.33,1.32,0.3,1.39,1.02c-0.15-0.41-0.52-0.55-0.91-0.65
							C59.14,31.02,58.83,30.68,58.68,30.3L58.68,30.3z"/>
					</g>
				</g>
			</g>
			<g>
				<path class="st2" d="M63.34,27.65c-0.36,0.06-0.68,0.31-1.05,0.33c-0.18,0.01-0.36-0.03-0.53-0.01
					c-0.41,0.03-0.78,0.36-0.85,0.77c-0.04,0.23,0.01,0.47-0.06,0.69c-0.11,0.34-0.48,0.53-0.66,0.85c-0.22,0.39-0.11,0.91,0.2,1.23
					s0.78,0.45,1.22,0.42c0.66-0.05,1.27-0.41,1.71-0.9c0.45-0.49,0.76-1.08,1.02-1.69c0.2-0.44,0.37-0.74,0.08-1.17
					C64.19,27.81,63.78,27.58,63.34,27.65z"/>
				<g>
					<path class="st3" d="M64.99,28.89c0,0.37-0.32,0.67-0.35,1.04c-0.02,0.25,0.09,0.49,0.11,0.74c0.02,0.4-0.22,0.77-0.45,1.1
						c-0.2,0.28-0.43,0.59-0.78,0.64c-0.41,0.06-0.84-0.29-1.23-0.13c-0.15,0.06-0.27,0.19-0.42,0.27
						c-0.28,0.15-0.66,0.09-0.91-0.12c-0.25-0.2-0.4-0.51-0.47-0.83c-0.14-0.64,0.03-1.34,0.45-1.84c0.07-0.08,0.15-0.16,0.25-0.2
						c0.17-0.05,0.37,0.05,0.54,0c0.16-0.05,0.25-0.22,0.28-0.39c0.03-0.17,0.02-0.34,0.07-0.5c0.09-0.32,0.38-0.56,0.7-0.65
						C63.43,27.82,64.98,27.92,64.99,28.89z"/>
					<path class="st4" d="M61.35,29.63c0,0-0.06-0.01-0.08,0c-0.03,0-0.1,0.03-0.13,0.04c-0.07,0.04-0.17,0.16-0.22,0.22
						c-0.07,0.09-0.2,0.3-0.24,0.41c-0.06,0.14-0.14,0.44-0.16,0.59c-0.01,0.08,0,0.23,0,0.31c0,0.09,0.02,0.27,0.03,0.36
						c0.01,0.07,0.05,0.21,0.08,0.27c0.02,0.06,0.09,0.19,0.12,0.25c0.04,0.07,0.14,0.2,0.2,0.25c0.05,0.05,0.3,0.2,0.44,0.22
						c0.22,0.04,0.43-0.07,0.43-0.07C61.23,32.63,59.99,30.69,61.35,29.63z"/>
					<g>
						<path class="st5" d="M64.66,29.2c-0.06,0.19-0.16,0.37-0.2,0.56c-0.08,0.55,0.37,1.3-0.23,1.7c0.29-0.32,0.23-0.72,0.14-1.11
							C64.25,29.95,64.4,29.52,64.66,29.2L64.66,29.2z"/>
					</g>
				</g>
			</g>
			<g>
				<path class="st2" d="M55.01,34.9c0.03,0.37,0.25,0.7,0.25,1.07c0,0.18-0.05,0.35-0.06,0.53c-0.01,0.41,0.3,0.81,0.7,0.91
					c0.22,0.06,0.47,0.03,0.68,0.12c0.33,0.14,0.49,0.52,0.79,0.72c0.37,0.25,0.9,0.19,1.24-0.1c0.34-0.28,0.51-0.74,0.52-1.19
					c0.01-0.66-0.31-1.3-0.76-1.78c-0.45-0.49-1.02-0.84-1.6-1.16c-0.43-0.23-0.71-0.43-1.16-0.17
					C55.24,34.07,54.97,34.47,55.01,34.9z"/>
				<g>
					<path class="st3" d="M56.37,33.37c0.37,0.03,0.64,0.37,1.01,0.44c0.25,0.04,0.5-0.05,0.75-0.05c0.4,0.01,0.75,0.28,1.06,0.53
						c0.27,0.22,0.56,0.48,0.58,0.83c0.03,0.42-0.35,0.81-0.23,1.21c0.05,0.16,0.17,0.28,0.24,0.44c0.13,0.3,0.03,0.66-0.19,0.9
						c-0.22,0.24-0.54,0.36-0.86,0.4c-0.65,0.09-1.33-0.14-1.8-0.6c-0.08-0.08-0.15-0.16-0.17-0.27c-0.04-0.18,0.08-0.36,0.04-0.54
						c-0.04-0.16-0.2-0.27-0.37-0.31c-0.16-0.04-0.34-0.05-0.5-0.11c-0.31-0.11-0.53-0.42-0.59-0.75
						C55.19,34.83,55.41,33.29,56.37,33.37z"/>
					<path class="st4" d="M56.82,37.05c0,0-0.01,0.06-0.01,0.08c0,0.03,0.02,0.1,0.03,0.13c0.04,0.07,0.14,0.19,0.2,0.24
						c0.09,0.08,0.28,0.22,0.39,0.28c0.14,0.07,0.43,0.18,0.58,0.21C58.08,38,58.24,38,58.32,38c0.09,0,0.27,0,0.37,0
						c0.07-0.01,0.21-0.04,0.28-0.06c0.07-0.02,0.19-0.07,0.26-0.1c0.07-0.04,0.21-0.12,0.27-0.17c0.05-0.05,0.22-0.28,0.26-0.42
						c0.05-0.21-0.04-0.44-0.04-0.44C59.8,37.42,57.77,38.49,56.82,37.05z"/>
					<g>
						<path class="st5" d="M56.66,33.72c0.19,0.08,0.36,0.19,0.54,0.25c0.54,0.12,1.33-0.26,1.68,0.36c-0.3-0.31-0.7-0.29-1.1-0.23
							C57.38,34.19,56.96,34,56.66,33.72L56.66,33.72z"/>
					</g>
				</g>
			</g>
			<path class="st2" d="M53.59,39.28c0.17,0.32,0.51,0.55,0.65,0.89c0.07,0.16,0.09,0.35,0.15,0.51c0.16,0.38,0.59,0.63,1,0.56
				c0.23-0.04,0.44-0.16,0.67-0.16c0.36,0,0.66,0.28,1.01,0.36c0.44,0.09,0.9-0.18,1.1-0.57c0.2-0.4,0.18-0.88,0.01-1.29
				c-0.25-0.61-0.79-1.07-1.39-1.34c-0.6-0.27-1.27-0.37-1.92-0.44c-0.48-0.05-0.82-0.12-1.13,0.29
				C53.47,38.42,53.38,38.89,53.59,39.28z"/>
			<g>
				<path class="st6" d="M52.33,35.15"/>
				<path class="st7" d="M52.33,35.15"/>
			</g>
			<g>
				<path class="st3" d="M54.24,37.33c0.35-0.12,0.74,0.09,1.1,0.01c0.24-0.06,0.44-0.24,0.67-0.33c0.37-0.15,0.8-0.03,1.18,0.08
					c0.33,0.1,0.7,0.22,0.86,0.53c0.19,0.37-0.01,0.89,0.26,1.21c0.11,0.13,0.27,0.2,0.39,0.31c0.24,0.22,0.29,0.6,0.18,0.9
					s-0.36,0.54-0.64,0.71c-0.56,0.33-1.28,0.39-1.89,0.15c-0.1-0.04-0.2-0.09-0.26-0.18c-0.1-0.15-0.07-0.36-0.17-0.51
					c-0.1-0.14-0.29-0.17-0.46-0.15c-0.17,0.02-0.33,0.09-0.5,0.1c-0.33,0.02-0.65-0.18-0.84-0.46
					C53.72,39.14,53.32,37.64,54.24,37.33z"/>
				<path class="st4" d="M56.09,40.54c0,0,0.01,0.06,0.02,0.07c0.02,0.03,0.06,0.09,0.08,0.11c0.06,0.05,0.2,0.12,0.27,0.14
					c0.11,0.04,0.35,0.09,0.47,0.1c0.15,0.01,0.46,0,0.61-0.03c0.08-0.01,0.22-0.07,0.29-0.1c0.09-0.03,0.25-0.1,0.33-0.15
					c0.06-0.03,0.18-0.11,0.23-0.16c0.05-0.04,0.15-0.14,0.19-0.19c0.05-0.06,0.14-0.19,0.18-0.27c0.03-0.06,0.1-0.34,0.07-0.48
					c-0.03-0.22-0.2-0.39-0.2-0.39C58.98,39.72,57.53,41.5,56.09,40.54z"/>
				<g>
					<path class="st5" d="M54.65,37.54c0.2,0,0.4,0.03,0.59,0.02c0.55-0.1,1.12-0.76,1.69-0.32c-0.4-0.17-0.75,0.01-1.1,0.22
						C55.49,37.69,55.03,37.69,54.65,37.54L54.65,37.54z"/>
				</g>
			</g>
			<path class="st2" d="M57.79,40.05c0.17,0.32,0.51,0.55,0.65,0.89c0.07,0.16,0.09,0.35,0.15,0.51c0.16,0.38,0.59,0.63,1,0.56
				c0.23-0.04,0.44-0.16,0.67-0.16c0.36,0,0.66,0.28,1.01,0.36c0.44,0.09,0.9-0.18,1.1-0.57c0.2-0.4,0.18-0.88,0.01-1.29
				c-0.25-0.61-0.79-1.07-1.39-1.34c-0.6-0.27-1.27-0.37-1.92-0.44c-0.48-0.05-0.82-0.12-1.13,0.29
				C57.68,39.2,57.59,39.67,57.79,40.05z"/>
			<g>
				<path class="st3" d="M58.45,38.11c0.35-0.12,0.74,0.09,1.1,0.01c0.24-0.06,0.44-0.24,0.67-0.33c0.37-0.15,0.8-0.03,1.18,0.08
					c0.33,0.1,0.7,0.22,0.86,0.53c0.19,0.37-0.01,0.89,0.26,1.21c0.11,0.13,0.27,0.2,0.39,0.31c0.24,0.22,0.29,0.6,0.18,0.9
					c-0.11,0.3-0.36,0.54-0.64,0.71c-0.56,0.33-1.28,0.39-1.89,0.15c-0.1-0.04-0.2-0.09-0.26-0.18c-0.1-0.15-0.07-0.36-0.17-0.51
					c-0.1-0.14-0.29-0.17-0.46-0.15c-0.17,0.02-0.33,0.09-0.5,0.1c-0.33,0.02-0.65-0.18-0.84-0.46
					C57.93,39.91,57.53,38.41,58.45,38.11z"/>
				<path class="st4" d="M60.3,41.32c0,0,0.01,0.06,0.02,0.07c0.02,0.03,0.06,0.09,0.08,0.11c0.06,0.05,0.2,0.12,0.27,0.14
					c0.11,0.04,0.35,0.09,0.47,0.1c0.15,0.01,0.46,0,0.61-0.03c0.08-0.01,0.22-0.07,0.29-0.1c0.09-0.03,0.25-0.1,0.33-0.15
					c0.06-0.03,0.18-0.11,0.23-0.16c0.05-0.04,0.15-0.14,0.19-0.19c0.05-0.06,0.14-0.19,0.18-0.27c0.03-0.06,0.1-0.34,0.07-0.48
					c-0.03-0.22-0.2-0.39-0.2-0.39C63.18,40.49,61.74,42.27,60.3,41.32z"/>
				<g>
					<path class="st5" d="M58.85,38.32c0.2,0,0.4,0.03,0.59,0.02c0.55-0.1,1.12-0.76,1.69-0.32c-0.4-0.17-0.75,0.01-1.1,0.22
						C59.69,38.47,59.24,38.46,58.85,38.32L58.85,38.32z"/>
				</g>
			</g>
			<path class="st2" d="M58.42,40.06c0.37,0,0.72-0.19,1.09-0.16c0.18,0.02,0.35,0.08,0.52,0.1c0.41,0.04,0.83-0.23,0.96-0.62
				c0.07-0.22,0.07-0.46,0.17-0.67c0.17-0.32,0.56-0.45,0.78-0.73c0.28-0.34,0.26-0.88,0-1.24c-0.25-0.37-0.7-0.57-1.14-0.61
				c-0.66-0.06-1.32,0.2-1.84,0.61s-0.92,0.95-1.28,1.5c-0.27,0.41-0.49,0.67-0.27,1.14C57.61,39.76,57.99,40.06,58.42,40.06z"/>
			<g>
				<path class="st3" d="M57,38.57c0.06-0.36,0.42-0.61,0.52-0.97c0.06-0.24-0.01-0.5,0.02-0.75c0.04-0.4,0.34-0.72,0.62-1.01
					c0.24-0.25,0.52-0.52,0.87-0.51c0.42,0.01,0.78,0.42,1.19,0.33c0.16-0.04,0.3-0.15,0.45-0.2c0.31-0.11,0.66,0.02,0.88,0.26
					c0.22,0.24,0.31,0.57,0.33,0.89c0.03,0.65-0.25,1.31-0.74,1.74c-0.08,0.07-0.17,0.14-0.28,0.15c-0.18,0.02-0.35-0.11-0.53-0.08
					c-0.17,0.02-0.28,0.18-0.34,0.34s-0.08,0.33-0.15,0.48c-0.14,0.3-0.46,0.49-0.79,0.53C58.36,39.87,56.85,39.53,57,38.57z"/>
				<path class="st4" d="M60.71,38.43c0,0,0.06,0.02,0.07,0.02c0.03,0,0.1-0.01,0.14-0.02c0.07-0.03,0.2-0.13,0.25-0.18
					c0.09-0.08,0.24-0.27,0.31-0.37c0.08-0.13,0.21-0.41,0.26-0.56c0.02-0.07,0.04-0.23,0.05-0.31c0.01-0.09,0.03-0.27,0.03-0.36
					c0-0.07-0.02-0.21-0.03-0.28c-0.01-0.07-0.06-0.2-0.08-0.26c-0.03-0.07-0.1-0.22-0.15-0.28c-0.04-0.05-0.26-0.24-0.39-0.29
					c-0.21-0.07-0.44,0-0.44,0C61.32,35.49,62.22,37.6,60.71,38.43z"/>
				<g>
					<path class="st5" d="M57.38,38.31c0.09-0.18,0.21-0.34,0.29-0.52c0.16-0.53-0.16-1.35,0.5-1.65c-0.34,0.27-0.35,0.67-0.32,1.07
						C57.91,37.64,57.69,38.04,57.38,38.31L57.38,38.31z"/>
				</g>
			</g>
			<g>
				<path class="st2" d="M54.44,37.66c0.25,0.27,0.63,0.4,0.85,0.7c0.11,0.14,0.17,0.31,0.28,0.45c0.25,0.33,0.73,0.46,1.11,0.29
					c0.21-0.09,0.39-0.26,0.61-0.32c0.35-0.09,0.71,0.11,1.07,0.09c0.44-0.02,0.82-0.4,0.92-0.84c0.1-0.43-0.05-0.9-0.32-1.25
					c-0.4-0.53-1.04-0.83-1.69-0.94c-0.65-0.11-1.32-0.04-1.97,0.07c-0.48,0.08-0.82,0.09-1.02,0.57
					C54.11,36.87,54.14,37.34,54.44,37.66z"/>
				<g>
					<path class="st3" d="M54.58,35.61c0.31-0.2,0.74-0.1,1.06-0.27C55.86,35.22,56,35,56.2,34.85c0.33-0.24,0.76-0.24,1.16-0.22
						c0.35,0.01,0.74,0.04,0.96,0.3c0.28,0.31,0.22,0.86,0.56,1.1c0.14,0.1,0.31,0.12,0.45,0.2c0.29,0.15,0.43,0.5,0.4,0.83
						c-0.03,0.32-0.21,0.62-0.44,0.85c-0.46,0.46-1.14,0.7-1.79,0.63c-0.11-0.01-0.22-0.04-0.3-0.1c-0.14-0.12-0.16-0.33-0.3-0.45
						c-0.13-0.11-0.33-0.09-0.48-0.02c-0.16,0.06-0.3,0.17-0.46,0.22c-0.32,0.1-0.67-0.01-0.93-0.23
						C54.54,37.49,53.77,36.15,54.58,35.61z"/>
					<path class="st4" d="M57.18,38.25c0,0,0.03,0.05,0.04,0.07c0.02,0.03,0.08,0.07,0.11,0.09c0.07,0.03,0.22,0.06,0.3,0.07
						c0.12,0.01,0.36,0,0.48-0.02c0.15-0.03,0.45-0.12,0.58-0.19c0.07-0.03,0.2-0.13,0.26-0.17c0.07-0.05,0.22-0.16,0.29-0.23
						c0.05-0.05,0.14-0.16,0.19-0.21c0.04-0.06,0.11-0.18,0.14-0.24c0.03-0.07,0.09-0.22,0.1-0.3c0.01-0.07,0.01-0.36-0.05-0.49
						c-0.09-0.2-0.29-0.32-0.29-0.32C59.77,36.72,58.82,38.81,57.18,38.25z"/>
					<g>
						<path class="st5" d="M55.02,35.71c0.2-0.05,0.4-0.07,0.58-0.14c0.5-0.24,0.89-1.02,1.55-0.74c-0.43-0.07-0.73,0.2-1.01,0.49
							C55.87,35.65,55.43,35.76,55.02,35.71L55.02,35.71z"/>
					</g>
				</g>
			</g>
			<g>
				<path class="st2" d="M60.89,38.25c0.17,0.33,0.5,0.56,0.63,0.9c0.07,0.17,0.08,0.35,0.15,0.51c0.15,0.38,0.58,0.64,0.99,0.58
					c0.23-0.03,0.44-0.15,0.67-0.14c0.36,0,0.65,0.29,1,0.37c0.43,0.1,0.9-0.16,1.11-0.56c0.21-0.39,0.19-0.88,0.03-1.29
					c-0.24-0.62-0.77-1.08-1.37-1.37c-0.6-0.28-1.26-0.4-1.92-0.47c-0.48-0.05-0.82-0.14-1.14,0.27
					C60.79,37.39,60.69,37.86,60.89,38.25z"/>
				<g>
					<path class="st3" d="M61.58,36.31c0.35-0.11,0.74,0.11,1.1,0.03c0.24-0.05,0.44-0.24,0.68-0.32c0.38-0.14,0.8-0.02,1.18,0.1
						c0.33,0.1,0.7,0.24,0.85,0.55c0.18,0.38-0.02,0.89,0.24,1.21c0.1,0.13,0.26,0.2,0.38,0.32c0.23,0.23,0.28,0.6,0.16,0.9
						c-0.12,0.3-0.37,0.54-0.65,0.7c-0.57,0.32-1.29,0.37-1.89,0.12c-0.1-0.04-0.2-0.09-0.26-0.18c-0.1-0.15-0.06-0.36-0.16-0.51
						c-0.1-0.14-0.29-0.17-0.46-0.15c-0.17,0.02-0.33,0.08-0.5,0.09c-0.33,0.01-0.65-0.2-0.83-0.47
						C61.03,38.11,60.65,36.6,61.58,36.31z"/>
					<path class="st4" d="M63.37,39.56c0,0,0.01,0.06,0.02,0.07c0.01,0.03,0.06,0.09,0.08,0.11c0.06,0.05,0.2,0.12,0.27,0.15
						c0.11,0.04,0.35,0.1,0.47,0.11c0.15,0.01,0.46,0,0.61-0.02c0.08-0.01,0.22-0.07,0.3-0.09c0.09-0.03,0.26-0.1,0.34-0.14
						c0.06-0.03,0.18-0.11,0.24-0.16c0.05-0.04,0.15-0.14,0.2-0.19c0.05-0.06,0.15-0.19,0.18-0.26c0.03-0.06,0.1-0.34,0.08-0.48
						c-0.03-0.22-0.2-0.39-0.2-0.39C66.27,38.78,64.79,40.54,63.37,39.56z"/>
					<g>
						<path class="st5" d="M61.98,36.53c0.2,0,0.4,0.04,0.59,0.03c0.55-0.09,1.13-0.74,1.69-0.29c-0.4-0.18-0.75-0.01-1.1,0.2
							C62.82,36.7,62.36,36.68,61.98,36.53L61.98,36.53z"/>
					</g>
				</g>
			</g>
			<g>
				<path class="st2" d="M62.14,41.59c0.32,0.18,0.72,0.19,1.03,0.39c0.15,0.1,0.26,0.24,0.41,0.34c0.34,0.23,0.84,0.2,1.14-0.07
					c0.17-0.15,0.28-0.37,0.48-0.5c0.3-0.2,0.71-0.12,1.04-0.25c0.41-0.16,0.66-0.64,0.61-1.08c-0.04-0.44-0.33-0.84-0.7-1.09
					c-0.54-0.38-1.25-0.47-1.9-0.37c-0.65,0.1-1.27,0.38-1.85,0.68c-0.43,0.22-0.75,0.34-0.79,0.86
					C61.57,40.94,61.76,41.38,62.14,41.59z"/>
				<g>
					<path class="st3" d="M61.63,39.6c0.23-0.29,0.67-0.32,0.92-0.59c0.17-0.18,0.23-0.44,0.38-0.65c0.23-0.33,0.65-0.46,1.03-0.58
						c0.33-0.1,0.71-0.19,1.01-0.02c0.36,0.21,0.48,0.75,0.88,0.87c0.16,0.05,0.33,0.02,0.49,0.05c0.32,0.06,0.57,0.34,0.64,0.66
						s-0.01,0.65-0.15,0.94c-0.29,0.58-0.86,1.02-1.5,1.16c-0.11,0.02-0.22,0.04-0.32-0.01c-0.17-0.07-0.25-0.27-0.42-0.33
						c-0.16-0.06-0.34,0.02-0.46,0.13c-0.13,0.11-0.23,0.25-0.36,0.35c-0.27,0.2-0.64,0.2-0.95,0.07
						C62.18,41.4,61.02,40.36,61.63,39.6z"/>
					<path class="st4" d="M64.93,41.29c0,0,0.04,0.04,0.06,0.05c0.03,0.02,0.1,0.04,0.13,0.05c0.08,0.01,0.23-0.01,0.31-0.03
						c0.12-0.03,0.34-0.11,0.45-0.17c0.13-0.07,0.39-0.26,0.5-0.36c0.06-0.05,0.15-0.18,0.19-0.24c0.05-0.07,0.16-0.22,0.2-0.31
						c0.03-0.06,0.09-0.19,0.11-0.26c0.02-0.07,0.05-0.2,0.06-0.27c0.01-0.08,0.02-0.24,0-0.32c-0.01-0.07-0.11-0.34-0.2-0.45
						c-0.15-0.16-0.38-0.21-0.38-0.21C66.9,39.02,66.66,41.31,64.93,41.29z"/>
					<g>
						<path class="st5" d="M62.08,39.56c0.17-0.11,0.36-0.19,0.51-0.31c0.4-0.38,0.52-1.25,1.24-1.19c-0.43,0.07-0.63,0.41-0.8,0.78
							C62.87,39.23,62.48,39.47,62.08,39.56L62.08,39.56z"/>
					</g>
				</g>
			</g>
			<g>
				<path class="st2" d="M63.74,40.61c0.32,0.18,0.72,0.19,1.03,0.39c0.15,0.1,0.26,0.24,0.41,0.34c0.34,0.23,0.84,0.2,1.14-0.07
					c0.17-0.15,0.28-0.37,0.48-0.5c0.3-0.2,0.71-0.12,1.04-0.25c0.41-0.16,0.66-0.64,0.61-1.08c-0.04-0.44-0.33-0.84-0.7-1.09
					c-0.54-0.38-1.25-0.47-1.9-0.37c-0.65,0.1-1.27,0.38-1.85,0.68c-0.43,0.22-0.75,0.34-0.79,0.86
					C63.18,39.96,63.36,40.4,63.74,40.61z"/>
				<g>
					<path class="st3" d="M63.23,38.62c0.23-0.29,0.67-0.32,0.92-0.59c0.17-0.18,0.23-0.44,0.38-0.65c0.23-0.33,0.65-0.46,1.03-0.58
						c0.33-0.1,0.71-0.19,1.01-0.02c0.36,0.21,0.48,0.75,0.88,0.87c0.16,0.05,0.33,0.02,0.49,0.05c0.32,0.06,0.57,0.34,0.64,0.66
						c0.07,0.32-0.01,0.65-0.15,0.94c-0.29,0.58-0.86,1.02-1.5,1.16c-0.11,0.02-0.22,0.04-0.32-0.01c-0.17-0.07-0.25-0.27-0.42-0.33
						c-0.16-0.06-0.34,0.02-0.46,0.13c-0.13,0.11-0.23,0.25-0.36,0.35c-0.27,0.2-0.64,0.2-0.95,0.07
						C63.78,40.42,62.63,39.38,63.23,38.62z"/>
					<path class="st4" d="M66.53,40.31c0,0,0.04,0.04,0.06,0.05c0.03,0.02,0.1,0.04,0.13,0.05c0.08,0.01,0.23-0.01,0.31-0.03
						c0.12-0.03,0.34-0.11,0.45-0.17c0.13-0.07,0.39-0.26,0.5-0.36c0.06-0.05,0.15-0.18,0.19-0.24c0.05-0.07,0.16-0.22,0.2-0.31
						c0.03-0.06,0.09-0.19,0.11-0.26c0.02-0.07,0.05-0.2,0.06-0.27c0.01-0.08,0.02-0.24,0-0.32c-0.01-0.07-0.11-0.34-0.2-0.45
						c-0.15-0.16-0.38-0.21-0.38-0.21C68.51,38.04,68.26,40.32,66.53,40.31z"/>
					<g>
						<path class="st5" d="M63.69,38.58c0.17-0.11,0.36-0.19,0.51-0.31c0.4-0.38,0.52-1.25,1.24-1.19c-0.43,0.07-0.63,0.41-0.8,0.78
							C64.48,38.25,64.09,38.49,63.69,38.58L63.69,38.58z"/>
					</g>
				</g>
			</g>
			<g>
				<path class="st2" d="M57.15,33.14c0.13,0.35,0.43,0.61,0.52,0.97c0.05,0.17,0.04,0.35,0.08,0.53c0.1,0.4,0.5,0.7,0.91,0.69
					c0.23,0,0.46-0.09,0.69-0.06c0.36,0.05,0.61,0.37,0.95,0.49c0.42,0.15,0.91-0.06,1.17-0.42c0.26-0.36,0.3-0.85,0.19-1.28
					c-0.17-0.64-0.64-1.17-1.2-1.52c-0.56-0.35-1.2-0.54-1.85-0.69c-0.47-0.11-0.79-0.23-1.16,0.14
					C57.15,32.27,57,32.73,57.15,33.14z"/>
				<g>
					<path class="st3" d="M58.06,31.3c0.36-0.07,0.72,0.19,1.09,0.16c0.25-0.02,0.47-0.18,0.71-0.24c0.39-0.09,0.79,0.07,1.16,0.24
						c0.32,0.14,0.66,0.32,0.78,0.64c0.14,0.4-0.13,0.88,0.09,1.23c0.09,0.14,0.24,0.23,0.34,0.36c0.2,0.25,0.2,0.63,0.05,0.92
						s-0.43,0.49-0.73,0.61c-0.6,0.25-1.32,0.21-1.89-0.1c-0.09-0.05-0.19-0.12-0.24-0.21c-0.08-0.16-0.02-0.37-0.1-0.53
						c-0.08-0.15-0.27-0.21-0.44-0.21c-0.17,0-0.34,0.04-0.51,0.03c-0.33-0.03-0.62-0.27-0.77-0.57
						C57.3,33.02,57.11,31.48,58.06,31.3z"/>
					<path class="st4" d="M59.46,34.73c0,0,0,0.06,0.01,0.08c0.01,0.03,0.04,0.09,0.07,0.12c0.05,0.06,0.18,0.14,0.25,0.18
						c0.11,0.06,0.33,0.14,0.45,0.16c0.15,0.03,0.46,0.06,0.61,0.05c0.08,0,0.23-0.04,0.3-0.06c0.09-0.02,0.27-0.07,0.35-0.1
						c0.07-0.03,0.19-0.09,0.25-0.13c0.06-0.04,0.17-0.12,0.22-0.17c0.06-0.05,0.17-0.17,0.21-0.24c0.04-0.06,0.14-0.33,0.14-0.47
						c0-0.22-0.15-0.41-0.15-0.41C62.43,34.3,60.76,35.87,59.46,34.73z"/>
					<g>
						<path class="st5" d="M58.43,31.56c0.2,0.03,0.4,0.08,0.59,0.1c0.56-0.03,1.21-0.6,1.72-0.09c-0.37-0.22-0.75-0.1-1.12,0.07
							C59.25,31.83,58.79,31.76,58.43,31.56L58.43,31.56z"/>
					</g>
				</g>
			</g>
			<g>
				<path class="st2" d="M62.39,35.09c0.37-0.02,0.71-0.23,1.08-0.21c0.18,0.01,0.35,0.07,0.53,0.07c0.41,0.02,0.81-0.27,0.93-0.67
					c0.06-0.22,0.04-0.46,0.14-0.67c0.15-0.33,0.53-0.48,0.75-0.77c0.26-0.36,0.21-0.89-0.06-1.24c-0.27-0.35-0.73-0.53-1.17-0.55
					c-0.66-0.03-1.3,0.27-1.8,0.7c-0.5,0.43-0.87,0.99-1.2,1.56c-0.24,0.42-0.45,0.69-0.21,1.15
					C61.57,34.84,61.95,35.12,62.39,35.09z"/>
				<g>
					<path class="st3" d="M60.9,33.68c0.04-0.37,0.39-0.63,0.47-0.99c0.05-0.25-0.04-0.5-0.02-0.75c0.02-0.4,0.3-0.74,0.57-1.04
						c0.23-0.26,0.5-0.54,0.84-0.55c0.42-0.01,0.8,0.38,1.2,0.27c0.16-0.04,0.29-0.16,0.44-0.22c0.3-0.12,0.66-0.01,0.89,0.22
						c0.23,0.23,0.34,0.55,0.37,0.88c0.07,0.65-0.18,1.32-0.65,1.78c-0.08,0.07-0.17,0.15-0.27,0.17c-0.18,0.03-0.36-0.09-0.54-0.06
						c-0.17,0.03-0.27,0.2-0.32,0.36c-0.05,0.16-0.06,0.33-0.12,0.49c-0.12,0.31-0.44,0.51-0.77,0.57
						C62.32,34.91,60.79,34.65,60.9,33.68z"/>
					<path class="st4" d="M64.59,33.35c0,0,0.06,0.01,0.07,0.01c0.03,0,0.1-0.02,0.14-0.03c0.07-0.03,0.19-0.14,0.24-0.19
						c0.08-0.09,0.23-0.28,0.29-0.38c0.08-0.13,0.19-0.42,0.23-0.57c0.02-0.08,0.03-0.23,0.03-0.31c0.01-0.09,0.01-0.27,0.01-0.36
						c-0.01-0.07-0.03-0.21-0.05-0.28c-0.02-0.07-0.07-0.2-0.1-0.26c-0.03-0.07-0.11-0.21-0.17-0.27c-0.04-0.05-0.27-0.23-0.41-0.27
						c-0.21-0.06-0.44,0.02-0.44,0.02C65.05,30.38,66.06,32.44,64.59,33.35z"/>
					<g>
						<path class="st5" d="M61.26,33.4c0.09-0.18,0.2-0.35,0.26-0.53c0.14-0.54-0.22-1.34,0.42-1.67c-0.32,0.29-0.31,0.69-0.26,1.09
							C61.75,32.7,61.55,33.12,61.26,33.4L61.26,33.4z"/>
					</g>
				</g>
			</g>
			<g>
				<path class="st2" d="M62.26,34.48c-0.12,0.35-0.06,0.74-0.21,1.08c-0.07,0.16-0.19,0.3-0.27,0.46
					c-0.17,0.37-0.06,0.86,0.27,1.11c0.18,0.14,0.41,0.22,0.57,0.38c0.25,0.26,0.24,0.67,0.43,0.98c0.23,0.38,0.74,0.53,1.17,0.42
					c0.43-0.12,0.77-0.47,0.95-0.87c0.28-0.6,0.24-1.31,0.03-1.94c-0.21-0.63-0.59-1.18-0.99-1.71c-0.3-0.38-0.47-0.68-0.99-0.63
					C62.8,33.81,62.4,34.06,62.26,34.48z"/>
				<g>
					<path class="st3" d="M64.13,33.63c0.32,0.18,0.44,0.6,0.74,0.81c0.21,0.14,0.48,0.15,0.7,0.26c0.36,0.17,0.57,0.56,0.75,0.92
						c0.16,0.31,0.31,0.67,0.19,0.99c-0.15,0.39-0.65,0.6-0.71,1.01c-0.02,0.16,0.04,0.33,0.04,0.5c0,0.32-0.24,0.62-0.54,0.74
						c-0.3,0.13-0.64,0.11-0.95,0.01c-0.63-0.19-1.16-0.67-1.4-1.28c-0.04-0.1-0.07-0.21-0.05-0.32c0.04-0.18,0.22-0.3,0.25-0.47
						c0.03-0.17-0.08-0.33-0.21-0.44c-0.13-0.11-0.29-0.18-0.41-0.3c-0.24-0.23-0.31-0.6-0.24-0.93
						C62.45,34.48,63.27,33.17,64.13,33.63z"/>
					<path class="st4" d="M63.04,37.17c0,0-0.03,0.05-0.04,0.06c-0.01,0.03-0.03,0.1-0.02,0.14c0,0.08,0.05,0.23,0.08,0.3
						c0.05,0.11,0.17,0.32,0.24,0.41c0.1,0.12,0.32,0.34,0.44,0.43c0.06,0.05,0.2,0.11,0.27,0.15c0.08,0.04,0.25,0.12,0.34,0.14
						c0.07,0.02,0.21,0.05,0.28,0.06c0.07,0.01,0.21,0.01,0.28,0.01c0.08,0,0.24-0.03,0.31-0.05c0.06-0.02,0.32-0.16,0.4-0.28
						c0.14-0.17,0.14-0.41,0.14-0.41C65.61,38.72,63.32,38.88,63.04,37.17z"/>
					<g>
						<path class="st5" d="M64.25,34.07c0.14,0.15,0.25,0.32,0.39,0.45c0.45,0.33,1.32,0.3,1.39,1.02
							c-0.15-0.41-0.52-0.55-0.91-0.65C64.71,34.79,64.4,34.45,64.25,34.07L64.25,34.07z"/>
					</g>
				</g>
			</g>
			<g>
				<path class="st2" d="M59.5,36.77c0.27,0.25,0.66,0.35,0.91,0.62c0.12,0.13,0.2,0.3,0.32,0.43c0.27,0.31,0.77,0.39,1.13,0.2
					c0.2-0.11,0.36-0.29,0.58-0.37c0.34-0.12,0.71,0.05,1.07,0c0.44-0.06,0.79-0.47,0.85-0.91c0.06-0.44-0.13-0.89-0.42-1.22
					c-0.44-0.49-1.11-0.74-1.76-0.8c-0.66-0.05-1.32,0.07-1.96,0.23c-0.47,0.12-0.81,0.16-0.97,0.66C59.1,36,59.17,36.47,59.5,36.77
					z"/>
				<g>
					<path class="st3" d="M59.46,34.71c0.29-0.23,0.73-0.16,1.04-0.36c0.21-0.14,0.33-0.38,0.52-0.54c0.3-0.26,0.74-0.3,1.14-0.32
						c0.35-0.02,0.74-0.02,0.99,0.22c0.3,0.29,0.29,0.84,0.65,1.05c0.14,0.08,0.32,0.09,0.47,0.16c0.3,0.13,0.47,0.46,0.47,0.79
						c0,0.32-0.16,0.63-0.36,0.88c-0.42,0.5-1.07,0.8-1.73,0.78c-0.11,0-0.22-0.02-0.31-0.08c-0.15-0.1-0.18-0.32-0.33-0.42
						c-0.14-0.1-0.33-0.06-0.48,0.02c-0.15,0.08-0.28,0.19-0.44,0.26c-0.31,0.13-0.67,0.04-0.94-0.15
						C59.58,36.59,58.7,35.31,59.46,34.71z"/>
					<path class="st4" d="M62.28,37.12c0,0,0.03,0.05,0.04,0.06c0.02,0.02,0.08,0.06,0.12,0.08c0.07,0.03,0.23,0.04,0.31,0.04
						c0.12,0,0.36-0.03,0.47-0.06c0.15-0.04,0.43-0.16,0.57-0.24c0.07-0.04,0.18-0.14,0.24-0.19c0.07-0.06,0.21-0.18,0.27-0.25
						c0.05-0.05,0.13-0.17,0.17-0.23c0.04-0.06,0.09-0.18,0.12-0.25c0.03-0.08,0.07-0.23,0.08-0.31c0.01-0.07-0.02-0.36-0.09-0.48
						c-0.11-0.19-0.32-0.3-0.32-0.3C64.72,35.37,63.96,37.53,62.28,37.12z"/>
					<g>
						<path class="st5" d="M59.91,34.78c0.19-0.07,0.39-0.11,0.56-0.18c0.48-0.28,0.8-1.09,1.48-0.87
							c-0.43-0.03-0.71,0.26-0.96,0.58C60.75,34.64,60.32,34.78,59.91,34.78L59.91,34.78z"/>
					</g>
				</g>
			</g>
		</g>
		<path class="st8" d="M69.14,39.65c0,2.02-3.64,3.65-8.13,3.65s-8.15-1.49-8.15-3.51l3.45,0.67c2.88,0.37,6.17,0.43,9.05,0.09
			L69.14,39.65z"/>
		<path class="st9" d="M64.09,42.33c4.17-1.61,4.96-2.64,4.96-2.64c0,1.85-3.57,3.18-6.31,3.4c-1.02,0.08-2.5,0.1-2.79,0.09
			C59.94,43.18,62.65,42.89,64.09,42.33z"/>
	</g>
	<ellipse class="st10" cx="61.19" cy="45.94" rx="8.9" ry="0.93"/>
	<ellipse class="st10" cx="39.22" cy="45.94" rx="8.9" ry="0.93"/>
	<g>
		<path class="st4" d="M43.77,42.42c0.95,1.99-0.5,4.28-2.71,4.28H28.36c-2.2,0-3.65-2.29-2.71-4.28l0.59,0.1
			c5.4,0.9,10.92,0.93,16.33,0.09L43.77,42.42z"/>
		<path class="st11" d="M43.83,42.39l-0.38-0.29c-1.83-1.37-3.12-3.31-3.84-5.49c-0.18-0.53-0.43-0.9-0.84-0.9H37.3L35.68,7
			c-0.02-0.61-0.52-1.08-1.12-1.08l0,0c-0.61,0-1.1,0.48-1.12,1.09l-1.23,28.71h-1.44c-0.41,0-0.66,0.37-0.84,0.89
			c-0.74,2.2-2.04,4.15-3.9,5.54l-0.33,0.24c-0.94,1.99,0.51,4.28,2.71,4.28h12.71C43.33,46.67,44.78,44.38,43.83,42.39z"/>
		<path class="st12" d="M33.37,26.4c-0.11,4.99-0.25,8.99-0.51,8.98s0.02-4.04,0.13-9.03s0.39-9.63,0.64-9.62
			C33.89,16.74,33.48,21.41,33.37,26.4z"/>
		<path class="st4" d="M36.08,26.37c0.17,4.99,0.34,8.99,0.55,8.98c0.21-0.01-0.08-4.04-0.24-9.03s-0.46-9.62-0.67-9.62
			C35.51,16.71,35.91,21.38,36.08,26.37z"/>
		<path class="st12" d="M29.99,40.09c1.14-1.98,0.85-3.44,0.77-3.49c-0.09-0.05,0.2,1.13-0.94,3.11c-1.14,1.98-3.1,2.6-3.01,2.65
			S28.84,42.07,29.99,40.09z"/>
		<path class="st4" d="M39.16,39.91c-1.14-1.98-0.85-3.44-0.77-3.49c0.09-0.05-0.2,1.13,0.94,3.11c1.14,1.98,3.1,2.6,3.01,2.65
			C42.26,42.22,40.3,41.89,39.16,39.91z"/>
		<path class="st4" d="M27.02,43.04c1.4,0.17,9.46,1.26,15.76-0.03c0.33-0.07,0.87-0.37,0.87-0.37c0.37,0.24,0.39,1.15,0.27,1.57
			c-0.4,1.43-1.37,2.32-3.02,2.32H28.45c-1.32,0-2.41-0.9-2.75-1.91c-0.41-1.22,0.11-1.97,0.11-1.97
			C26.56,42.94,26.87,43.02,27.02,43.04z"/>
	</g>
	<g>
		<path class="st1" d="M34.33,10.48c-0.27,0.83-1.25,1.17-1.98,0.69c-7.06-4.65-10-2.83-15.73-4.67c-4.52-1.45-6.88-3.73-7.8-4.81
			c-0.3-0.35-0.4-0.83-0.26-1.26l0.09-0.27c0,0,2.17,3.46,8.27,5.42c5.89,1.89,9.35-1.66,16.88,3.39
			C34.3,9.3,34.51,9.92,34.33,10.48L34.33,10.48z"/>
		<circle class="st1" cx="8.7" cy="1.03" r="0.95"/>
	</g>
	<g>
		<path class="st13" d="M34.97,10.69c-0.26,0.83,0.34,1.68,1.21,1.71c8.44,0.34,9.77,3.53,15.5,5.37c4.52,1.45,7.77,0.98,9.15,0.64
			c0.45-0.11,0.8-0.44,0.94-0.88l0.09-0.27c0,0-3.78,1.55-9.88-0.41c-5.89-1.89-6.63-6.8-15.7-7.08
			C35.69,9.75,35.15,10.12,34.97,10.69L34.97,10.69z"/>
		<circle class="st1" cx="61.27" cy="17.78" r="0.95"/>
	</g>
	<circle class="st11" cx="34.61" cy="10.85" r="3.55"/>
	<path class="st12" d="M8.1,0.71c0.16-0.33,0.58-0.45,0.51-0.45S8.1,0.24,7.94,0.85C7.85,1.21,7.98,1.5,8.05,1.5S7.87,1.2,8.1,0.71z
		"/>
	<path class="st12" d="M32.3,9.15C33.1,8,34.75,7.8,34.5,7.76s-1.91-0.4-2.88,1.8c-0.57,1.28-0.25,2.49,0,2.53
		C31.87,12.13,31.12,10.82,32.3,9.15z"/>
	<path class="st4" d="M9.29,1.4C9.1,1.72,8.67,1.8,8.73,1.8s0.51,0.08,0.73-0.52c0.13-0.35,0.03-0.66-0.04-0.66
		C9.36,0.62,9.57,0.95,9.29,1.4z"/>
	<path class="st4" d="M37.22,12.18c-0.59,1.21-2.11,1.65-1.87,1.65s1.87,0.08,2.45-2.14c0.34-1.3-0.14-2.39-0.38-2.39
		S38.07,10.42,37.22,12.18z"/>
	<ellipse class="st10" cx="8.9" cy="45.38" rx="8.9" ry="0.93"/>
	<path class="st12" d="M23.64,6.34c-0.63,0.05,1.14-0.43,4.18,0.18c2.22,0.45,4.19,1.26,3.84,1.76C31.53,8.47,30,7.39,27.8,6.87
		C25.59,6.35,24.01,6.31,23.64,6.34z"/>
	<path class="st12" d="M45.01,12.97c0.04,0.24-0.51-0.75-3.36-1.85c-2.11-0.81-3.81-0.89-3.19-0.95c0.1-0.01,1.05-0.14,3.17,0.66
		C43.76,11.64,44.95,12.62,45.01,12.97z"/>
	<path class="st14" d="M45.03,14.4c0.07,0.24-0.59-0.7-3.54-1.49c-2.18-0.59-3.88-0.49-3.28-0.61c0.1-0.02,1.03-0.25,3.23,0.33
		C43.66,13.22,44.94,14.06,45.03,14.4z"/>
	<path class="st4" d="M22.98,7.46c-0.63,0.01,1.16-0.37,4.17,0.39c2.19,0.55,4.13,1.46,3.75,1.95c-0.14,0.18-1.61-0.97-3.79-1.6
		C24.93,7.56,23.35,7.45,22.98,7.46z"/>
	<g>
		<g>
			<path class="st0" d="M16.5,23.18c0,0.67-3.62,1.21-8.09,1.21s-8.2-0.43-8.2-1.1c0-0.67,3.73-1.32,8.2-1.32S16.5,22.51,16.5,23.18
				z"/>
		</g>
		<g>
			<g>
				<path class="st15" d="M6.93,14.8h-0.8c-0.51,0-0.98,0.27-1.24,0.71l-0.4,0.68c-0.26,0.44-0.26,0.99,0,1.44l0.4,0.68
					c0.26,0.44,0.73,0.71,1.24,0.71h0.8c0.51,0,0.98-0.27,1.24-0.71l0.4-0.68c0.26-0.44,0.26-0.99,0-1.44l-0.4-0.68
					C7.91,15.07,7.44,14.8,6.93,14.8z"/>
			</g>
			<g>
				<path class="st16" d="M7.79,15.15l-0.73-0.34c-0.46-0.21-1-0.16-1.42,0.13L4.99,15.4c-0.42,0.29-0.65,0.79-0.6,1.3l0.07,0.78
					c0.05,0.51,0.36,0.96,0.83,1.17l0.73,0.34c0.46,0.21,1,0.16,1.42-0.13l0.65-0.46c0.42-0.29,0.65-0.79,0.6-1.3l-0.07-0.78
					C8.57,15.81,8.25,15.36,7.79,15.15z"/>
				<g>
					<path class="st5" d="M4.98,17.5c-0.13-0.56-0.21-1.12-0.27-1.69c0.47-0.36,0.95-0.69,1.45-1.01c0.46,0.24,0.91,0.48,1.35,0.77
						c-0.48-0.14-0.94-0.31-1.39-0.5l0.13-0.01c-0.43,0.32-0.86,0.63-1.31,0.92L5,15.86C5.02,16.4,5.02,16.95,4.98,17.5L4.98,17.5z"
						/>
				</g>
				<path class="st17" d="M5.81,18.8c0,0,0.61,0.32,0.83,0.38c0.05,0.01,0.15,0.02,0.2,0.01c0.15-0.04,0.53-0.36,0.53-0.36
					l0.87-0.62c0,0,0.3-0.21,0.37-0.3c0.03-0.04,0.07-0.16,0.07-0.16L8.6,16.7c0,0-0.02,0.97-0.37,1.2c0,0-0.94,0.81-1.31,0.98
					C6.5,19.07,5.81,18.8,5.81,18.8z"/>
			</g>
		</g>
		<g>
			<g>
				<path class="st18" d="M8.82,20.18c0.15,0.52-0.16,1.07-0.68,1.22c-0.39,0.11-0.8-0.03-1.05-0.33c-0.01,0.01-0.03,0.01-0.04,0.01
					l-0.93,0.26c-0.66,0.19-1.35-0.12-1.66-0.69c-0.05-0.09-0.09-0.19-0.12-0.29l-0.27-0.93c-0.01-0.04-0.02-0.09-0.03-0.13
					c-0.36-0.06-0.68-0.32-0.79-0.7c-0.15-0.52,0.16-1.07,0.68-1.22c0.39-0.11,0.79,0.02,1.03,0.31c0.03-0.01,0.07-0.02,0.1-0.03
					L6,17.4c0.65-0.19,1.33,0.11,1.65,0.68c0.05,0.09,0.1,0.2,0.13,0.31l0.27,0.93c0.02,0.06,0.03,0.12,0.04,0.18
					C8.43,19.56,8.72,19.82,8.82,20.18z"/>
				<path class="st19" d="M7.86,17.16c0.1,0.33,0.01,0.68-0.21,0.92c-0.32-0.57-1-0.86-1.65-0.68l-0.09,0.02
					c0-0.43,0.29-0.82,0.72-0.94C7.16,16.33,7.71,16.63,7.86,17.16z"/>
				<path class="st19" d="M6.21,21.32c-0.01,0.42-0.29,0.8-0.72,0.92c-0.53,0.15-1.08-0.15-1.23-0.68c-0.09-0.33-0.01-0.67,0.2-0.91
					c0.32,0.58,1,0.88,1.66,0.69L6.21,21.32z"/>
			</g>
			<g>
				<path class="st17" d="M8.46,19.82c0.72,0.5,0.12,1.71-0.71,1.54c-0.26-0.04-0.48-0.2-0.59-0.4C7.96,21.51,8.91,20.69,8.46,19.82
					L8.46,19.82z"/>
			</g>
			<g>
				<path class="st20" d="M3.94,19.01c-0.72-0.24-0.52-1.39,0.22-1.45c0.22-0.03,0.45,0.05,0.59,0.19
					C3.94,17.49,3.35,18.4,3.94,19.01L3.94,19.01z"/>
			</g>
			<path class="st21" d="M3.9,18.93c0,0-0.42-1.02,0.74-1.11"/>
		</g>
		<g>
			<line class="st1" x1="8.6" y1="1.32" x2="0.2" y2="23.29"/>
			<line class="st1" x1="8.73" y1="1.32" x2="16.5" y2="23.18"/>
			<line class="st1" x1="8.66" y1="1.33" x2="8.66" y2="22.3"/>
		</g>
		<g>
			<path class="st22" d="M5.38,25.64l-2.86-1.87C2,23.44,1.86,22.76,2.19,22.25l0.85-1.28c0.07-0.11,0.15-0.21,0.23-0.29
				c0.37-0.4,1.03-0.23,1.2,0.29l0.66,2.06l2.08-0.29c0.5-0.07,0.92,0.4,0.77,0.87c-0.05,0.14-0.12,0.29-0.22,0.44l-0.85,1.28
				C6.58,25.83,5.89,25.97,5.38,25.64z"/>
			<g>
				<path class="st23" d="M5.18,25.67l-2.57-1.68c-0.6-0.39-0.76-1.18-0.37-1.77l0.37-0.57c0.36-0.55,1.07-0.73,1.65-0.45l0.37-0.6
					l1.95,0.06l0.92,1.71l-0.42,0.67c0.5,0.41,0.62,1.14,0.25,1.69L6.96,25.3C6.57,25.89,5.78,26.05,5.18,25.67z"/>
				<g>
					<path class="st5" d="M6.8,24.82c-0.25,0.78-1.27,0.87-1.82,0.33C5.61,25.54,6.4,25.51,6.8,24.82L6.8,24.82z"/>
				</g>
				<polygon class="st17" points="6.45,20.71 4.39,21.1 4.66,20.65 				"/>
				<g>
					<path class="st5" d="M6.83,22.7c0.44-0.42,0.12-0.75-0.14-1.16c0.31,0.41,0.65,0.75,0.23,1.23C6.87,22.83,6.78,22.76,6.83,22.7
						L6.83,22.7z"/>
				</g>
			</g>
		</g>
		<g>
			<path class="st22" d="M12.25,19.79l2.15,2.66c0.38,0.47,0.31,1.17-0.16,1.55l-1.2,0.96c-0.1,0.08-0.2,0.15-0.31,0.21
				c-0.47,0.26-1.05-0.1-1.05-0.64l0.01-2.16l-2.07-0.37c-0.49-0.09-0.76-0.66-0.46-1.07c0.09-0.12,0.21-0.24,0.34-0.35l1.2-0.96
				C11.16,19.24,11.86,19.31,12.25,19.79z"/>
			<g>
				<path class="st23" d="M12.44,19.82l1.93,2.39c0.45,0.55,0.36,1.36-0.19,1.8l-0.53,0.43c-0.51,0.41-1.25,0.37-1.71-0.08
					l-0.54,0.45l-1.84-0.65l-0.35-1.91l0.61-0.51c-0.35-0.54-0.24-1.27,0.28-1.68l0.53-0.43C11.18,19.18,11.99,19.27,12.44,19.82z"
					/>
				<g>
					<path class="st5" d="M10.64,20.13c0.48-0.67,1.48-0.44,1.83,0.25C12,19.81,11.23,19.6,10.64,20.13L10.64,20.13z"/>
				</g>
				<polygon class="st17" points="9.71,24.16 11.79,24.41 11.39,24.75 				"/>
				<g>
					<path class="st5" d="M9.96,22.14c-0.54,0.26-0.34,0.68-0.23,1.15c-0.17-0.48-0.39-0.92,0.16-1.24
						C9.96,22.01,10.03,22.1,9.96,22.14L9.96,22.14z"/>
				</g>
			</g>
		</g>
		<g>
			<path class="st22" d="M9.45,18.05l2.15,2.66c0.38,0.47,0.31,1.17-0.16,1.55l-1.2,0.96c-0.1,0.08-0.2,0.15-0.31,0.21
				c-0.47,0.26-1.05-0.1-1.05-0.64l0.01-2.16l-2.07-0.37c-0.49-0.09-0.76-0.66-0.46-1.07c0.09-0.12,0.21-0.24,0.34-0.35l1.2-0.96
				C8.36,17.5,9.06,17.58,9.45,18.05z"/>
			<g>
				<path class="st23" d="M9.64,18.09l1.93,2.39c0.45,0.55,0.36,1.36-0.19,1.8l-0.53,0.43c-0.51,0.41-1.25,0.37-1.71-0.08
					l-0.54,0.45l-1.84-0.65l-0.35-1.91L7.02,20c-0.35-0.54-0.24-1.27,0.28-1.68l0.53-0.43C8.38,17.45,9.19,17.54,9.64,18.09z"/>
				<g>
					<path class="st5" d="M7.84,18.4c0.48-0.67,1.48-0.44,1.83,0.25C9.2,18.07,8.43,17.86,7.84,18.4L7.84,18.4z"/>
				</g>
				<polygon class="st17" points="6.91,22.42 8.99,22.68 8.59,23.02 				"/>
				<g>
					<path class="st5" d="M7.16,20.41c-0.54,0.26-0.34,0.68-0.23,1.15c-0.17-0.48-0.39-0.92,0.16-1.24
						C7.16,20.27,7.23,20.37,7.16,20.41L7.16,20.41z"/>
				</g>
			</g>
		</g>
		<g>
			<g>
				<path class="st18" d="M12.01,24.07c0.15,0.52-0.16,1.07-0.68,1.22c-0.39,0.11-0.8-0.03-1.05-0.33
					c-0.01,0.01-0.03,0.01-0.04,0.01l-0.93,0.26c-0.66,0.19-1.35-0.12-1.66-0.69c-0.05-0.09-0.09-0.19-0.12-0.29l-0.27-0.93
					c-0.01-0.04-0.02-0.09-0.03-0.13c-0.36-0.06-0.68-0.32-0.79-0.7c-0.15-0.52,0.16-1.07,0.68-1.22c0.39-0.11,0.79,0.02,1.03,0.31
					c0.03-0.01,0.07-0.02,0.1-0.03l0.93-0.26c0.65-0.19,1.33,0.11,1.65,0.68c0.05,0.09,0.1,0.2,0.13,0.31l0.27,0.93
					c0.02,0.06,0.03,0.12,0.04,0.18C11.62,23.46,11.91,23.71,12.01,24.07z"/>
				<path class="st19" d="M11.05,21.05c0.1,0.33,0.01,0.68-0.21,0.92c-0.32-0.57-1-0.86-1.65-0.68L9.1,21.31
					c0-0.43,0.29-0.82,0.72-0.94C10.35,20.22,10.9,20.53,11.05,21.05z"/>
				<path class="st19" d="M9.4,25.21c-0.01,0.42-0.29,0.8-0.72,0.92c-0.53,0.15-1.08-0.15-1.23-0.68c-0.09-0.33-0.01-0.67,0.2-0.91
					c0.32,0.58,1,0.88,1.66,0.69L9.4,25.21z"/>
			</g>
			<g>
				<path class="st17" d="M11.65,23.71c0.72,0.5,0.12,1.71-0.71,1.54c-0.26-0.04-0.48-0.2-0.59-0.4
					C11.15,25.41,12.1,24.59,11.65,23.71L11.65,23.71z"/>
			</g>
			<g>
				<path class="st20" d="M7.13,22.91c-0.72-0.24-0.52-1.39,0.22-1.45c0.22-0.03,0.45,0.05,0.59,0.19
					C7.13,21.38,6.54,22.29,7.13,22.91L7.13,22.91z"/>
			</g>
			<path class="st21" d="M7.08,22.83c0,0-0.42-1.02,0.74-1.11"/>
		</g>
		<g>
			<path class="st24" d="M10.7,16.23c0.1,0.35-1.09,1-1.09,1s0.4,1.15,0.2,1.46c-0.21,0.32-1.49,0.39-1.49,0.39
				s-0.09,1.35-0.45,1.41c-0.36,0.06-0.84-1.21-0.84-1.21s-1.31,0.34-1.47,0.01c-0.16-0.33,0.89-1.18,0.89-1.18s-0.72-1.13-0.39-1.3
				c0.2-0.1,0.43,0.59,0.81,0c0.36-0.57-0.39-0.51-0.38-0.71c0.01-0.37,1.46-0.17,1.46-0.17s0.33-1.31,0.7-1.3
				c0.37,0.01,0.61,1.34,0.61,1.34S10.6,15.88,10.7,16.23z"/>
			<g>
				<path class="st5" d="M9.5,16.31c0.98-0.21,1.25,0.15,0.16,0.46c0,0,0.37-0.2,0.37-0.2C10.73,16.23,9.76,16.33,9.5,16.31
					L9.5,16.31z"/>
			</g>
			<g>
				<path class="st5" d="M8.37,15.95c0.01-1,0.42-1.2,0.49-0.06c0,0-0.11-0.41-0.11-0.41C8.56,14.73,8.44,15.71,8.37,15.95
					L8.37,15.95z"/>
			</g>
			<g>
				<path class="st5" d="M9.57,18.35l-0.24-1.04l0.33,1.01C9.67,18.38,9.59,18.41,9.57,18.35L9.57,18.35z"/>
			</g>
			<path class="st17" d="M7.08,19.2c0,0,0.04,0.11,0.05,0.15c0.02,0.06,0.07,0.18,0.1,0.23c0.04,0.08,0.11,0.25,0.15,0.33
				c0.03,0.06,0.1,0.17,0.13,0.23c0.02,0.03,0.07,0.09,0.09,0.12c0.02,0.02,0.07,0.07,0.09,0.09c0.02,0.02,0.05,0.05,0.07,0.06
				c0.01,0.01,0.05,0.03,0.06,0.02c0.01,0,0.07-0.01,0.08-0.02c0.02-0.01,0.06-0.05,0.07-0.06c0.01-0.02,0.04-0.06,0.04-0.06
				C7.65,20.12,7.45,19.93,7.08,19.2z"/>
			<path class="st17" d="M7.06,19.21l-0.28,0.06l-0.19,0.04l-0.3,0.05c0,0-0.21,0.03-0.28,0.03c-0.06,0-0.17-0.01-0.23-0.02
				c-0.03,0-0.06-0.01-0.08-0.01c-0.04-0.01-0.08-0.07-0.08-0.09c-0.01-0.02-0.02-0.07-0.02-0.09c0.01-0.03,0.03-0.08,0.04-0.1
				c0.02-0.03,0.08-0.15,0.08-0.15S5.99,19.43,7.06,19.21z"/>
			<path class="st17" d="M9.76,18.68c-0.06,0.06-0.08,0.06-0.08,0.06s-0.05,0.03-0.14,0.06c-0.16,0.06-0.2,0.07-0.27,0.08
				c-0.03,0.01-0.05,0.02-0.07,0.02c-0.07,0.02-0.03,0.01-0.16,0.03C9,18.95,8.88,18.96,8.88,18.96l-0.21,0.03L8.44,19l-0.16,0.01
				l1.52-0.44C9.79,18.57,9.78,18.66,9.76,18.68z"/>
			<path class="st17" d="M6.05,16.94c-0.02-0.05-0.03,0.02-0.03,0.04c-0.01,0.06,0.03,0.22,0.05,0.27c0.02,0.07,0.08,0.19,0.1,0.25
				c0.03,0.07,0.1,0.19,0.13,0.26c0.03,0.05,0.08,0.16,0.11,0.21c0.03,0.04,0.12,0.17,0.12,0.17"/>
		</g>
		<g>
			<g>
				<path class="st15" d="M10.35,16.05h-0.8c-0.51,0-0.98,0.27-1.24,0.71l-0.4,0.68c-0.26,0.44-0.26,0.99,0,1.44l0.4,0.68
					c0.26,0.44,0.73,0.71,1.24,0.71h0.8c0.51,0,0.98-0.27,1.24-0.71l0.4-0.68c0.26-0.44,0.26-0.99,0-1.44l-0.4-0.68
					C11.33,16.32,10.86,16.05,10.35,16.05z"/>
			</g>
			<g>
				<path class="st16" d="M11.2,16.4l-0.73-0.34c-0.46-0.21-1-0.16-1.42,0.13L8.4,16.65c-0.42,0.29-0.65,0.79-0.6,1.3l0.07,0.78
					c0.05,0.51,0.36,0.96,0.83,1.17l0.73,0.34c0.46,0.21,1,0.16,1.42-0.13l0.65-0.46c0.42-0.29,0.65-0.79,0.6-1.3l-0.07-0.78
					C11.98,17.06,11.67,16.62,11.2,16.4z"/>
				<g>
					<path class="st5" d="M8.4,18.75c-0.13-0.56-0.21-1.12-0.27-1.69c0.47-0.36,0.95-0.69,1.45-1.01c0.46,0.24,0.91,0.48,1.35,0.77
						c-0.48-0.14-0.94-0.31-1.39-0.5l0.13-0.01c-0.43,0.32-0.86,0.63-1.31,0.92l0.06-0.12C8.44,17.66,8.44,18.21,8.4,18.75
						L8.4,18.75z"/>
				</g>
				<path class="st17" d="M9.22,20.05c0,0,0.61,0.32,0.83,0.38c0.05,0.01,0.15,0.02,0.2,0.01c0.15-0.04,0.53-0.36,0.53-0.36
					l0.87-0.62c0,0,0.3-0.21,0.37-0.3c0.03-0.04,0.07-0.16,0.07-0.16l-0.08-1.06c0,0-0.02,0.97-0.37,1.2c0,0-0.94,0.81-1.31,0.98
					C9.92,20.32,9.22,20.05,9.22,20.05z"/>
			</g>
		</g>
		<g>
			<path class="st24" d="M5.82,16.93c0.34-0.13,1.09,1,1.09,1s1.12-0.5,1.44-0.32c0.34,0.19,0.51,1.45,0.51,1.45
				s1.35-0.03,1.44,0.33c0.09,0.36-1.13,0.94-1.13,0.94s0.45,1.28,0.14,1.47C8.99,21.98,8.05,21,8.05,21s-1.06,0.81-1.26,0.5
				c-0.12-0.19,0.55-0.48-0.07-0.8c-0.6-0.31-0.47,0.43-0.67,0.44c-0.37,0.02-0.29-1.44-0.29-1.44s-1.34-0.22-1.36-0.58
				c-0.02-0.37,1.29-0.72,1.29-0.72S5.47,17.06,5.82,16.93z"/>
			<g>
				<path class="st5" d="M6,18.11c-0.29-0.96,0.05-1.26,0.45-0.2c0,0-0.23-0.35-0.23-0.35C5.82,16.9,5.99,17.86,6,18.11L6,18.11z"/>
			</g>
			<g>
				<path class="st5" d="M5.74,19.27c-1,0.07-1.23-0.32-0.1-0.48c0,0-0.39,0.14-0.39,0.14C4.51,19.18,5.49,19.22,5.74,19.27
					L5.74,19.27z"/>
			</g>
			<g>
				<path class="st5" d="M8.03,17.87L7.02,18.2L8,17.79C8.05,17.77,8.08,17.85,8.03,17.87L8.03,17.87z"/>
			</g>
			<path class="st17" d="M9.09,20.28c0,0,0.11-0.05,0.14-0.07c0.06-0.03,0.17-0.09,0.22-0.12c0.08-0.04,0.24-0.13,0.31-0.18
				c0.06-0.04,0.16-0.11,0.21-0.15c0.03-0.02,0.09-0.07,0.12-0.1c0.02-0.02,0.07-0.07,0.09-0.1c0.01-0.02,0.05-0.05,0.06-0.08
				c0.01-0.01,0.02-0.05,0.02-0.06c0-0.01-0.02-0.07-0.03-0.07c-0.02-0.01-0.05-0.05-0.07-0.06c-0.02-0.01-0.07-0.04-0.07-0.04
				C9.95,19.64,9.78,19.86,9.09,20.28z"/>
			<path class="st17" d="M9.1,20.3l0.09,0.27l0.06,0.19l0.07,0.3c0,0,0.05,0.2,0.06,0.27c0.01,0.06,0,0.18,0,0.23
				c0,0.03,0,0.06-0.01,0.08c-0.01,0.04-0.06,0.08-0.08,0.09c-0.02,0.01-0.07,0.03-0.09,0.03c-0.03,0-0.08-0.02-0.11-0.03
				c-0.03-0.01-0.16-0.07-0.16-0.07S9.41,21.35,9.1,20.3z"/>
			<path class="st17" d="M8.34,17.66c0.07,0.05,0.07,0.07,0.07,0.07s0.04,0.05,0.08,0.14c0.07,0.16,0.08,0.19,0.1,0.26
				c0.01,0.03,0.02,0.05,0.02,0.06c0.02,0.07,0.01,0.03,0.04,0.15c0.01,0.05,0.04,0.17,0.04,0.17l0.04,0.2l0.03,0.23l0.03,0.16
				l-0.57-1.48C8.23,17.63,8.32,17.64,8.34,17.66z"/>
			<path class="st17" d="M6.92,21.5c-0.05,0.03,0.02,0.03,0.05,0.03c0.06,0,0.21-0.05,0.27-0.07c0.06-0.03,0.18-0.09,0.24-0.13
				c0.06-0.04,0.18-0.12,0.25-0.16c0.05-0.03,0.15-0.09,0.2-0.13c0.04-0.03,0.16-0.13,0.16-0.13"/>
		</g>
		<path class="st8" d="M16.49,23.15c0,2.02-3.64,3.65-8.13,3.65S0.2,25.31,0.2,23.29l3.45,0.67c2.88,0.37,6.17,0.43,9.05,0.09
			L16.49,23.15z"/>
		<path class="st9" d="M11.45,25.87c4.17-1.61,4.96-2.64,4.96-2.64c0,1.85-3.57,3.18-6.31,3.4c-1.02,0.08-2.5,0.1-2.79,0.09
			C7.31,26.71,10.01,26.42,11.45,25.87z"/>
	</g>
	<path class="st25" d="M7.65,24.55"/>
	<path class="st25" d="M0.5,23.52"/>
	
		<linearGradient id="SVGID_1_" gradientUnits="userSpaceOnUse" x1="931.4174" y1="148.9271" x2="935.0685" y2="148.9271" gradientTransform="matrix(-0.7071 -0.7071 0.7071 -0.7071 589.1956 776.0226)">
		<stop  offset="0" style="stop-color:#FFEFDB"/>
		<stop  offset="0.9695" style="stop-color:#F7CE91"/>
		<stop  offset="1" style="stop-color:#F7CD8E"/>
	</linearGradient>
	<circle class="st26" cx="34.6" cy="10.81" r="1.83"/>
</g>
</svg>
