<?xml version="1.0" encoding="utf-8"?>
<!-- Generator: Adobe Illustrator 23.0.4, SVG Export Plug-In . SVG Version: 6.00 Build 0)  -->
<svg version="1.1" id="Layer_1" xmlns="http://www.w3.org/2000/svg" xmlns:xlink="http://www.w3.org/1999/xlink" x="0px" y="0px"
	 viewBox="0 0 102.84 38.13" style="enable-background:new 0 0 102.84 38.13;" xml:space="preserve">
<style type="text/css">
	.st0{fill:#FFFFFF;stroke:#000000;stroke-miterlimit:10;}
	.st1{fill:none;stroke:#939598;stroke-width:0.5;stroke-linecap:round;stroke-miterlimit:10;}
	.st2{fill:#D1D3D4;}
	.st3{fill:#C2996C;stroke:#764F2A;stroke-width:0.75;stroke-linecap:round;stroke-miterlimit:10;}
	.st4{fill:#E1BB96;stroke:#764F2A;stroke-width:0.75;stroke-linecap:round;stroke-miterlimit:10;}
	.st5{fill:#C2996C;stroke:#764F2A;stroke-width:0.75;stroke-miterlimit:10;}
	.st6{opacity:0;fill:none;stroke:#000000;stroke-width:1.268940e-07;stroke-miterlimit:10;}
	.st7{clip-path:url(#SVGID_2_);fill:none;stroke:#764F2A;stroke-width:0.1;stroke-miterlimit:10;}
	.st8{clip-path:url(#SVGID_2_);fill:none;stroke:#F3C999;stroke-width:0.1;stroke-miterlimit:10;}
	.st9{clip-path:url(#SVGID_2_);}
	.st10{fill:none;stroke:#F3C999;stroke-width:0.1;stroke-miterlimit:10;}
	.st11{fill:none;stroke:#764F2A;stroke-width:0.1;stroke-miterlimit:10;}
	.st12{fill:#F3C999;stroke:#F3C999;stroke-width:0.1;stroke-miterlimit:10;}
	.st13{opacity:0;clip-path:url(#SVGID_2_);fill:none;stroke:#000000;stroke-width:1.215740e-07;stroke-miterlimit:10;}
	.st14{clip-path:url(#SVGID_2_);fill:#F3C999;stroke:#F3C999;stroke-width:0.1;stroke-miterlimit:10;}
	.st15{fill:#E1BB96;stroke:#F3C999;stroke-width:0.4154;stroke-miterlimit:10;}
	.st16{fill:#E1BB96;stroke:#764F2A;stroke-width:0.4154;stroke-miterlimit:10;}
	.st17{fill:#E1BB96;}
</style>
<path class="st0" d="M13.51,28.22"/>
<path class="st1" d="M0.25,0.25c4.62,7.43,9.61,18.61,14.96,34.66c0,0,11.56-53.5,23.89,0.33c0,0,11.56-37.98,25.21-0.44
	c0,0,3.52-9.91,9.47-7.82"/>
<g>
	<ellipse class="st2" cx="89.33" cy="36.59" rx="12.58" ry="1.54"/>
	<path class="st3" d="M100.59,11.63l1.16,1.16c2.31,2.43-1.49,9.78-8.48,16.43s-14.53,10.06-16.84,7.63l-1.44-2.26"/>
	
		<ellipse transform="matrix(0.7251 -0.6887 0.6887 0.7251 8.084 67.1444)" class="st4" cx="88.13" cy="23.45" rx="17.46" ry="6.07"/>
	<line class="st5" x1="77.69" y1="36.12" x2="78.09" y2="37.58"/>
	<line class="st5" x1="78.95" y1="36.01" x2="79.34" y2="37.47"/>
	<line class="st5" x1="80.13" y1="35.73" x2="80.53" y2="37.19"/>
	<g>
		<line class="st5" x1="85.8" y1="32.82" x2="86.62" y2="34.1"/>
		<line class="st5" x1="84.69" y1="33.63" x2="85.51" y2="34.91"/>
		<line class="st5" x1="83.46" y1="34.29" x2="84.28" y2="35.57"/>
		<line class="st5" x1="82.44" y1="34.8" x2="83.17" y2="36.13"/>
		<line class="st5" x1="81.4" y1="35.29" x2="81.97" y2="36.69"/>
		<line class="st5" x1="87.05" y1="32" x2="87.97" y2="33.21"/>
		<line class="st5" x1="88.58" y1="30.77" x2="89.7" y2="32.04"/>
		<line class="st5" x1="90.11" y1="29.6" x2="91.24" y2="30.62"/>
		<line class="st5" x1="91.57" y1="28.23" x2="92.7" y2="29.25"/>
		<line class="st5" x1="93.14" y1="26.97" x2="94.26" y2="27.99"/>
		<line class="st5" x1="94.4" y1="25.41" x2="95.53" y2="26.43"/>
		<line class="st5" x1="95.84" y1="24.01" x2="96.96" y2="25.03"/>
		<line class="st5" x1="97.07" y1="22.42" x2="98.2" y2="23.44"/>
		<line class="st5" x1="98.2" y1="20.72" x2="99.33" y2="21.74"/>
		<line class="st5" x1="99.28" y1="18.97" x2="100.4" y2="19.99"/>
		<line class="st5" x1="100.29" y1="17.31" x2="101.41" y2="18.32"/>
		<line class="st5" x1="100.93" y1="16.27" x2="102.06" y2="17.29"/>
		<line class="st5" x1="101.23" y1="15.3" x2="102.36" y2="16.32"/>
		<line class="st5" x1="101.38" y1="14.17" x2="102.51" y2="15.19"/>
	</g>
</g>
<polygon class="st6" points="78.33,30.99 78.33,30.99 78.33,30.99 78.33,30.99 78.33,30.99 78.33,30.99 78.33,30.99 78.33,30.99 
	78.33,30.99 78.33,30.99 78.33,30.99 78.33,30.99 78.33,30.99 78.33,30.99 78.33,30.99 78.33,30.99 78.33,30.99 78.33,30.99 
	78.33,30.99 78.33,30.99 78.33,30.99 78.33,30.99 78.33,30.99 78.33,30.99 78.33,30.99 78.33,30.99 78.33,30.99 78.33,30.99 
	78.33,30.99 78.33,30.99 78.33,30.99 78.33,30.99 78.33,30.99 78.33,30.99 78.33,30.99 78.33,30.99 78.33,30.99 78.33,30.99 
	78.33,30.99 78.33,30.99 78.33,30.99 78.33,30.99 78.33,30.99 78.33,30.99 78.33,30.99 78.33,30.99 78.33,30.99 78.33,30.99 
	78.33,30.99 78.33,30.99 78.33,30.99 78.33,30.99 78.33,30.99 78.33,30.99 78.33,30.99 78.33,30.99 78.33,30.99 78.33,30.99 
	78.33,30.99 78.33,30.99 78.33,30.99 78.33,30.99 78.33,30.99 78.33,30.99 78.33,30.99 78.33,30.99 78.33,30.99 78.33,30.99 
	78.33,30.99 78.33,30.99 78.33,30.99 78.33,30.99 78.33,30.99 78.33,30.99 78.33,30.99 78.33,30.99 78.33,30.99 78.33,30.99 
	78.33,30.99 78.33,30.99 78.33,30.99 78.33,30.99 78.33,30.99 78.33,30.99 78.33,30.99 78.33,30.99 78.33,30.99 78.33,30.99 
	78.33,30.99 78.33,30.99 78.33,30.99 78.33,30.99 78.33,30.99 78.33,30.99 78.33,30.99 78.33,30.99 78.33,30.99 78.33,30.99 
	78.33,30.99 78.33,30.99 78.33,30.99 78.33,30.99 78.33,30.99 78.33,30.99 78.33,30.99 78.33,30.99 78.33,30.99 78.33,30.99 
	78.33,30.99 78.33,30.99 78.33,30.99 78.33,30.99 "/>
<g>
	<defs>
		
			<rect id="SVGID_1_" x="78.13" y="26.9" transform="matrix(0.7296 -0.6838 0.6838 0.7296 1.3633 63.26)" width="5.1" height="6.01"/>
	</defs>
	<clipPath id="SVGID_2_">
		<use xlink:href="#SVGID_1_"  style="overflow:visible;"/>
	</clipPath>
	<line class="st7" x1="79.63" y1="28.79" x2="81.58" y2="27.4"/>
	<path class="st7" d="M78.31,29.6l0.1,0.05l0.54-0.4c0.21-0.15,0.45-0.26,0.66-0.3"/>
	<path class="st8" d="M81.3,27.23c-0.1-0.04-0.19-0.1-0.31-0.19L80.9,27.1l0.12,0.12c0.06,0.06,0.05,0.11-0.01,0.18
		c-0.03,0.03-0.07,0.06-0.1,0.08l-1.17,0.86c-0.33,0.24-0.64,0.45-1.59,1.09l-0.02,0.06l0.13,0.06"/>
	<g class="st9">
		<path class="st10" d="M82.96,29.04c-0.09-0.1-0.24-0.26-0.44-0.49l-0.23-0.25l-0.69,0.56l0.07,0.07l0.27-0.18
			c0.1-0.07,0.18-0.11,0.22-0.12c0.04-0.01,0.16,0.07,0.25,0.16l0.27,0.29l-2.26,1.7c-0.4,0.29-0.41,0.3-0.52,0.21l-0.14-0.12
			l-0.12,0.09l0.14,0.14c0.1,0.1,0.17,0.17,0.21,0.21"/>
		<path class="st11" d="M82.94,29.34l-0.06,0.06l-2.35,1.74c-0.08,0.06-0.11,0.09-0.15,0.12c-0.08,0.08-0.09,0.13-0.03,0.2
			l0.13,0.16l-0.14,0.12"/>
		<path class="st12" d="M83.33,29.9c0.04-0.05-0.03-0.16-0.22-0.36l-0.22-0.22"/>
		<line class="st11" x1="83.71" y1="29.81" x2="82.97" y2="30.38"/>
		<path class="st10" d="M82.96,29.04c0.08,0.09,0.31,0.32,0.52,0.54l0.25,0.27"/>
		<path class="st10" d="M82.97,30.32l-0.04-0.05l0.26-0.23c0.04-0.03,0.11-0.11,0.14-0.15"/>
		<path class="st10" d="M80.41,31.76l-0.14-0.15c-0.09-0.1-0.21-0.24-0.26-0.29"/>
	</g>
	<path class="st13" d="M80.69,29.91"/>
	<path class="st8" d="M81.15,28.82c-0.02-0.07-0.05-0.13-0.08-0.16c-0.16-0.17-0.47-0.19-1.46,0.13"/>
	<path class="st7" d="M79.21,30.16c-0.02-0.03-0.02-0.07,0.03-0.15c0.17-0.33,0.33-0.58,0.72-1.14l0.09-0.02
		c0.39-0.07,0.6-0.04,0.72,0.09c0.02,0.02,0.04,0.06,0.06,0.12l0.36-0.25"/>
	<path class="st8" d="M79.62,28.91c-0.62,0.92-0.82,1.29-0.76,1.36"/>
	<path class="st14" d="M79.52,30.22l-0.2-0.02c-0.07-0.01-0.09-0.02-0.11-0.04"/>
	<path class="st7" d="M78.86,30.26c0.03,0.03,0.14,0.05,0.37,0.05l0.24,0l0.06-0.12"/>
</g>
<path class="st15" d="M95.08,15.25l1.29,0.27l0.9,0.14"/>
<path class="st16" d="M97.4,15.5c-0.02,0.05-0.35,0.4-0.36,0.42c-0.01,0.02-0.05,0.05-0.11,0.1L85.49,26.68
	c-0.49,0.45-0.72,0.83-0.69,1.13c0.03,0.3,0.26,0.7,0.67,1.2l-0.47,0.46"/>
<path class="st17" d="M80.52,29.42l0.16,0.16c0.19,0.2,0.17,0.4-0.07,0.63c-0.28,0.27-0.62,0.33-0.8,0.13
	c-0.04-0.04-0.09-0.1-0.14-0.17c-0.01-0.01-0.03-0.04-0.06-0.07L80.52,29.42z"/>
<g>
	<g>
		<path class="st15" d="M84.9,29.19l-1.94-2.06"/>
	</g>
	<path class="st15" d="M83.04,27.22l-1.68-1.81l0.29-0.27c0.52,0.48,0.93,0.72,1.25,0.71c0.32,0,0.76-0.27,1.33-0.8l8.79-8.19
		c0.31-0.28,0.51-0.52,0.62-0.72c0.11-0.2,0.09-0.38-0.07-0.55c-0.1-0.11-1.02-0.77-1.02-0.77l2.9,0.5"/>
</g>
</svg>
