<?xml version="1.0" encoding="utf-8"?>
<!-- Generator: Adobe Illustrator 23.0.4, SVG Export Plug-In . SVG Version: 6.00 Build 0)  -->
<svg version="1.1" id="Layer_1" xmlns="http://www.w3.org/2000/svg" xmlns:xlink="http://www.w3.org/1999/xlink" x="0px" y="0px"
	 viewBox="0 0 108.37 39.97" style="enable-background:new 0 0 108.37 39.97;" xml:space="preserve">
<style type="text/css">
	.st0{fill:none;stroke:#9270B1;stroke-width:13.1648;stroke-linecap:round;stroke-miterlimit:10;}
	.st1{fill:none;stroke:#DCCAE3;stroke-width:10.9707;stroke-linecap:round;stroke-miterlimit:10;}
	.st2{fill:#FFFFFF;}
	.st3{fill:none;}
	.st4{fill:#B193C4;}
	.st5{fill:none;stroke:#808285;stroke-width:0.6406;stroke-linecap:round;stroke-miterlimit:10;}
	.st6{fill:none;stroke:#808285;stroke-width:0.6406;stroke-linecap:round;stroke-miterlimit:10;stroke-dasharray:1.2303,1.8454;}
	.st7{fill:#EAECEC;stroke:#A7A9AC;stroke-width:0.3203;stroke-linecap:round;stroke-miterlimit:10;}
	.st8{fill:#D1D3D4;}
	.st9{fill:#E2A6A6;stroke:#AE4A3D;stroke-width:0.3203;stroke-linecap:round;stroke-miterlimit:10;}
	.st10{fill:#D37F7D;}
	.st11{fill:#F9F9FB;}
	.st12{fill:none;stroke:#D1D3D4;stroke-width:0.32;stroke-linecap:round;stroke-miterlimit:10;}
	.st13{fill:#FFFFFF;stroke:#D1D3D4;stroke-width:0.32;stroke-linecap:round;stroke-miterlimit:10;}
	.st14{fill:none;stroke:#BCBEC0;stroke-width:0.3203;stroke-linecap:round;stroke-miterlimit:10;}
	.st15{fill:none;stroke:#BCBEC0;stroke-width:0.3611;stroke-linecap:round;stroke-miterlimit:10;}
</style>
<g>
	<g>
		<g>
			<g>
				<line class="st0" x1="26.99" y1="21.92" x2="11.89" y2="12.71"/>
				<line class="st1" x1="26.99" y1="21.92" x2="11.89" y2="12.71"/>
			</g>
		</g>
	</g>
	<g>
		<path class="st2" d="M28.09,17.37l-9.69-5.66l-4.87-2.74c-0.41-0.24-0.76-0.43-1.19-0.53c-0.42-0.09-0.85-0.1-1.28-0.04
			C10.2,8.54,9.39,9.03,8.72,9.68L8.66,9.63c0.52-0.79,1.31-1.45,2.29-1.72c0.48-0.15,1-0.15,1.51-0.09c0.5,0.07,1,0.3,1.41,0.5
			c1.7,0.85,3.25,1.89,4.84,2.89c3.17,1.99,6.31,4.03,9.43,6.1L28.09,17.37z"/>
	</g>
	<g>
		<path class="st3" d="M30.05,23.71"/>
	</g>
	<g>
		<path class="st3" d="M25.84,25.1"/>
	</g>
	<g>
		<path class="st3" d="M10.63,16.02"/>
	</g>
	<path class="st4" d="M31.77,24.63c0,0-3.24,4.34-19.65-5.4c-4.51-2.67,7.54,5.21,11.66,7.35c3.24,1.69,5.68,0.48,6.53-0.04l0,0
		c0.47-0.29,0.61-0.53,0.97-0.95L31.77,24.63z"/>
</g>
<g>
	<g>
		<line class="st5" x1="84.44" y1="14.15" x2="84.94" y2="13.74"/>
		<line class="st6" x1="86.37" y1="12.58" x2="97.61" y2="3.49"/>
		<line class="st5" x1="98.33" y1="2.91" x2="98.83" y2="2.51"/>
	</g>
</g>
<polyline class="st5" points="34.72,26.21 45.72,37.21 43.18,14.36 56.51,6.53 63.7,20.49 38.1,22.19 54.82,31.92 66.45,8.65 
	73.44,15.2 72.38,33.82 87.19,32.98 98.4,15.84 107.92,30.86 95.86,38.69 84.44,14.15 "/>
<g>
	<circle class="st7" cx="17.46" cy="1.6" r="1.44"/>
	<ellipse class="st8" cx="18.51" cy="2.27" rx="1.55" ry="1.49"/>
	<circle class="st9" cx="19.46" cy="2.84" r="2.26"/>
	<path class="st10" d="M21.46,1.75c0.17,0.31,0.27,0.66,0.27,1.03c0,1.19-0.98,2.16-2.19,2.16c-0.13,0-0.26-0.01-0.38-0.03l0,0
		c1.23-0.53,2.09-1.66,2.28-2.98L21.46,1.75z"/>
	<circle class="st7" cx="20.9" cy="1.6" r="1.44"/>
	<path class="st8" d="M21.87,0.76c0.26,0.22,0.36,0.77,0.28,1.12c-0.1,0.47-0.49,0.87-0.96,0.98c-0.22,0.05-0.44,0.02-0.63-0.03
		c0,0,0.85-0.02,1.18-0.57C22.15,1.58,21.87,0.76,21.87,0.76z"/>
	<g>
		<path class="st11" d="M19.04,0.92c-0.39,0.14-0.75,0.37-1,0.69c-0.26,0.31-0.38,0.71-0.38,1.11c0,0.04-0.03,0.08-0.08,0.08
			S17.5,2.76,17.5,2.72c0,0,0,0,0-0.01c0.02-0.43,0.18-0.85,0.48-1.16C18.26,1.25,18.64,1.03,19.04,0.92z"/>
	</g>
</g>
<g>
	<circle class="st7" cx="9.13" cy="22.32" r="1.44"/>
	<ellipse transform="matrix(0.839 -0.5442 0.5442 0.839 -10.8827 7.8894)" class="st8" cx="7.89" cy="22.33" rx="1.55" ry="1.49"/>
	<circle class="st9" cx="6.78" cy="22.37" r="2.26"/>
	<path class="st10" d="M8.51,21.16c0.2,0.29,0.33,0.67,0.37,1.04c0.12,1.19-0.76,2.25-1.97,2.37c-0.13,0.01-0.26,0.01-0.38,0.01l0,0
		c1.17-0.65,1.91-1.86,1.97-3.2L8.51,21.16z"/>
	<circle class="st7" cx="6.25" cy="24.2" r="1.44"/>
	<path class="st8" d="M7.16,23.3c0.28,0.2,0.44,0.73,0.4,1.09c-0.05,0.47-0.39,0.92-0.85,1.07c-0.21,0.07-0.46,0.03-0.66,0
		c0,0,0.88-0.08,1.14-0.65C7.53,24.09,7.16,23.3,7.16,23.3z"/>
	<g>
		<path class="st11" d="M6.78,20.57c-0.41,0.05-0.81,0.21-1.12,0.46c-0.32,0.25-0.52,0.62-0.6,1.01C5.05,22.08,5,22.11,4.96,22.1
			C4.92,22.09,4.89,22.05,4.9,22c0,0,0,0,0-0.01c0.11-0.41,0.36-0.8,0.71-1.03C5.95,20.72,6.37,20.59,6.78,20.57z"/>
	</g>
</g>
<g>
	<circle class="st7" cx="30.22" cy="33.37" r="1.44"/>
	<ellipse transform="matrix(0.9997 -0.0247 0.0247 0.9997 -0.8 0.7305)" class="st8" cx="29.15" cy="32.73" rx="1.55" ry="1.49"/>
	<circle class="st9" cx="28.19" cy="32.18" r="2.26"/>
	<path class="st10" d="M30.29,32.06c0.02,0.35-0.07,0.74-0.23,1.08c-0.52,1.08-1.83,1.52-2.92,0.99c-0.12-0.06-0.23-0.12-0.33-0.2h0
		c1.34,0.06,2.61-0.58,3.35-1.69L30.29,32.06z"/>
	<circle class="st7" cx="26.78" cy="33.46" r="1.44"/>
	<path class="st8" d="M28.02,33.17c0.14,0.31,0,0.85-0.23,1.14c-0.29,0.38-0.81,0.58-1.29,0.47c-0.22-0.05-0.41-0.22-0.56-0.35
		c0,0,0.79,0.39,1.32,0.04C27.93,34.04,28.02,33.17,28.02,33.17z"/>
	<g>
		<path class="st11" d="M28.31,30.29c-0.41,0.02-0.82,0.14-1.16,0.36c-0.34,0.22-0.57,0.57-0.69,0.95c-0.01,0.04-0.06,0.07-0.1,0.06
			c-0.04-0.01-0.07-0.06-0.06-0.1c0,0,0,0,0-0.01c0.15-0.4,0.43-0.76,0.8-0.97C27.48,30.38,27.9,30.28,28.31,30.29z"/>
	</g>
</g>
<path class="st12" d="M22.02,10.06"/>
<g>
	<polyline class="st12" points="20.87,8.65 21.21,7.58 22.31,9.16 23.67,9.26 	"/>
	<polyline class="st13" points="23.05,10.84 23.67,12.51 21.86,11.88 20.31,13.01 20.35,11.09 18.79,9.97 20.07,9.58 	"/>
	<path class="st13" d="M21.39,9.56c-0.29-0.45-1.11-1.89-0.85-3.51"/>
	<path class="st13" d="M20.57,9.83c-0.29-0.45-1.11-1.89-0.85-3.51"/>
	<path class="st12" d="M30.25,3.64c-2.53,3.33-7.92,6.45-8.13,6.56"/>
	<path class="st13" d="M22.76,10.98c0.21-0.11,5.6-3.23,8.13-6.56"/>
</g>
<g>
	<polyline class="st13" points="5.27,14.02 5.13,12.24 6.7,13.35 8.5,12.68 7.93,14.52 9.12,16.02 7.79,16.04 	"/>
	<path class="st13" d="M5.58,13.95c-0.15,0.03-2.72,0.67-5.42,1.8"/>
	<polyline class="st13" points="6.76,16.72 6.14,17.65 5.52,15.83 4.24,15.36 	"/>
	<polygon class="st2" points="7.17,15.54 6.54,16.62 5.87,15.67 5.38,14.21 7.17,14.22 	"/>
	<path class="st12" d="M0.5,16.72c2.73-1.14,5.34-1.8,5.49-1.83"/>
	<path class="st2" d="M7.25,19.12c0.7-1.48,0.3-3.09,0.14-3.6l-0.86,0.03c0.16,0.51,0.55,2.12-0.14,3.6L7.25,19.12z"/>
	<path class="st12" d="M7.85,15.67"/>
	<path class="st12" d="M6.52,15.7c0.16,0.51,0.55,2.12-0.14,3.6"/>
	<path class="st12" d="M7.38,15.67c0.16,0.51,0.55,2.12-0.14,3.6"/>
</g>
<line class="st14" x1="28.26" y1="35.39" x2="29.47" y2="39.81"/>
<line class="st15" x1="29.47" y1="35.25" x2="30.82" y2="39.6"/>
</svg>
